
<svg xmlns="http://www.w3.org/2000/svg">

<style> :root svg:not(:target) {
    display: none;
  }
</style>

<svg id="burger-menu" width="24" height="18" viewBox="0 0 24 18" fill="none" xmlns="http://www.w3.org/2000/svg">
<line y1="1.25" x2="24" y2="1.25" stroke="black" stroke-width="1.5"/>
<line y1="9.25" x2="24" y2="9.25" stroke="black" stroke-width="1.5"/>
<line y1="17.25" x2="24" y2="17.25" stroke="black" stroke-width="1.5"/>
</svg>

<svg id="close" width="20" height="20" viewBox="0 0 20 20" fill="none" xmlns="http://www.w3.org/2000/svg">
<line y1="-0.75" x2="24.7577" y2="-0.75" transform="matrix(0.686589 -0.727046 0.686589 0.727046 2.00171 20)" stroke="black" stroke-width="1.5"/>
<line y1="-0.75" x2="24.7577" y2="-0.75" transform="matrix(0.686589 0.727046 -0.686589 0.727046 1 2)" stroke="black" stroke-width="1.5"/>
</svg>

<svg id="logo-footer-mobile" width="129" height="24" viewBox="0 0 129 24" fill="currentColor">
<g fill="currentColor" clip-path="url(#clip0_88502_265)">
<path d="M2.10253 22.0513C0.968358 20.3682 0.405343 18.3503 0.50003 16.3077V7.79487C0.362683 5.73031 0.890444 3.67661 2.00238 1.94872C3.1041 0.615385 4.80676 0 7.31067 0C9.81458 0 11.4171 0.615385 12.4187 1.74359C13.506 3.17255 14.0409 4.96181 13.921 6.76923V8.82051H9.01333V6.46154C9.05297 5.76385 8.95065 5.06533 8.71286 4.41026C8.58576 4.14583 8.38431 3.9264 8.13443 3.78018C7.88455 3.63395 7.59766 3.56763 7.31067 3.58974C6.60958 3.58974 6.10879 3.79487 5.90848 4.30769C5.68191 5.03643 5.58025 5.79984 5.60801 6.5641V17.5385C5.55512 18.2799 5.69327 19.0227 6.00864 19.6923C6.20895 20.2051 6.70973 20.4103 7.41083 20.4103C8.11192 20.4103 8.51255 20.2051 8.71286 19.6923C8.94058 18.9992 9.04242 18.2692 9.01333 17.5385V15.0769H13.921V17.1282C14.0229 18.9651 13.4911 20.7803 12.4187 22.2564C11.4171 23.4872 9.71443 24.1026 7.31067 24.1026C4.90692 24 3.1041 23.3846 2.10253 22.0513Z"/>
<path d="M19.8302 0.307617H25.5391L29.7457 23.6922H25.1385L24.3372 18.7692H21.0321L20.2308 23.6922H15.5235L19.8302 0.307617ZM23.9366 15.6922L22.7347 6.56403L21.5329 15.6922H23.9366Z"/>
<path d="M33.2512 4.20505H29.8458V0.307617H41.7645V4.10249H38.3591V23.6922H33.2512V4.20505Z"/>
<path d="M50.8787 0.307617H59.6925V2.76916H53.9836V10.4615H58.5908V12.8204H53.9836V21.4358H59.6925V23.7948H50.7786V0.307617H50.8787Z"/>
<path d="M62.2966 0.307617H64.5L71.0102 15.7948V0.307617H73.6142V23.6922H71.6111L65.0008 7.69223V23.6922H62.2966V0.307617Z" />
<path d="M76.6189 0.307617H85.4327V2.76916H79.7238V10.4615H84.331V12.8204H79.7238V21.4358H85.4327V23.7948H76.6189V0.307617Z" />
<path d="M88.0368 0.3076H92.644C94.4564 0.179397 96.2575 0.685711 97.7519 1.7435C98.8537 2.66657 99.3544 4.3076 99.3544 6.46145C99.3544 9.4358 98.453 11.282 96.5501 11.8973L99.7551 23.5897H96.6502L93.6455 12.6153H91.1416V23.5897H87.9366V0.3076H88.0368ZM92.4437 10.3589C93.4762 10.446 94.5053 10.1553 95.3482 9.53837C95.9491 9.02555 96.2496 7.99991 96.2496 6.46145C96.2774 5.69719 96.1757 4.93378 95.9491 4.20504C95.7237 3.68211 95.3366 3.24964 94.8474 2.97427C94.1576 2.65236 93.4003 2.51137 92.644 2.56401H91.2418V10.2563H92.4437V10.3589Z"/>
<path d="M103.361 21.9487C102.32 20.1554 101.831 18.0821 101.959 15.9999V8.20507C101.934 6.71875 102.102 5.23567 102.459 3.79481C102.794 2.71811 103.462 1.78218 104.362 1.12815C105.481 0.450275 106.771 0.128917 108.068 0.20507C110.171 0.20507 111.674 0.71789 112.575 1.8461C113.612 3.33582 114.108 5.14977 113.977 6.9743V7.79481H110.973V7.07687C110.977 6.21789 110.91 5.36008 110.772 4.51276C110.688 3.97732 110.4 3.49792 109.971 3.17943C109.408 2.80104 108.74 2.62099 108.068 2.66661C107.35 2.61949 106.639 2.83785 106.065 3.28199C105.829 3.48529 105.637 3.73569 105.499 4.01787C105.361 4.30004 105.281 4.60805 105.264 4.92302C105.132 5.83993 105.065 6.76543 105.063 7.69225V16.4102C104.99 17.7384 105.194 19.0674 105.664 20.3076C106.065 21.1281 106.866 21.4358 108.068 21.4358C108.543 21.4964 109.024 21.4119 109.452 21.1929C109.88 20.9739 110.234 20.6302 110.472 20.2051C111.001 18.9081 111.241 17.5064 111.173 16.1025V14.4615H108.268V12.1025H114.077V23.6923H112.074L111.774 21.0256C111.511 21.9193 110.965 22.6975 110.22 23.2364C109.476 23.7753 108.578 24.0441 107.667 23.9999C106.84 24.0498 106.013 23.8885 105.261 23.5304C104.51 23.1724 103.857 22.6289 103.361 21.9487Z" />
<path d="M120.487 15.4871L115.58 0.410156H118.584L122.09 11.6922L125.495 0.410156H128.5L123.592 15.4871V23.6922H120.588V15.4871H120.487Z"/>
</g>
<defs>
<clipPath id="clip0_88502_265">
<rect width="128" height="24" fill="white" transform="translate(0.5)"/>
</clipPath>
</defs>
</svg>

<svg id="logo-footer-tablet" width="143" height="27" viewBox="0 0 143 27" fill="currentColor">
<g clip-path="url(#clip0_87226_467)">
<path d="M1.78783 24.4381C0.522508 22.6066 -0.105608 20.4106 2.82917e-05 18.1878V8.92382C-0.1532 6.67709 0.435585 4.44218 1.67609 2.56183C2.9052 1.11085 4.80474 0.441162 7.59818 0.441162C10.3916 0.441162 12.1794 1.11085 13.2968 2.3386C14.5099 3.89364 15.1066 5.84078 14.9728 7.80768V10.04H9.49771V7.47284C9.54193 6.71359 9.42778 5.95344 9.1625 5.24056C9.0207 4.95281 8.79596 4.71401 8.51719 4.55488C8.23841 4.39576 7.91835 4.32359 7.59818 4.34765C6.81601 4.34765 6.25733 4.57088 6.03385 5.12894C5.78108 5.92199 5.66766 6.75276 5.69864 7.58445V19.5271C5.63963 20.334 5.79375 21.1423 6.14559 21.871C6.36906 22.4291 6.92775 22.6523 7.70991 22.6523C8.49208 22.6523 8.93903 22.4291 9.1625 21.871C9.41655 21.1167 9.53016 20.3223 9.49771 19.5271V16.8484H14.9728V19.0807C15.0865 21.0797 14.4932 23.055 13.2968 24.6614C12.1794 26.0007 10.2799 26.6704 7.59818 26.6704C4.91648 26.5588 2.9052 25.8891 1.78783 24.4381Z" fill="#111111"/>
<path d="M21.5653 0.775879H27.9344L32.6273 26.2238H27.4874L26.5935 20.8664H22.9062L22.0123 26.2238H16.7606L21.5653 0.775879ZM26.1466 17.518L24.8057 7.58433L23.4649 17.518H26.1466Z" fill="#111111"/>
<path d="M36.5381 5.01721H32.739V0.775879H46.0358V4.90559H42.2367V26.2238H36.5381V5.01721Z" fill="#111111"/>
<path d="M56.2039 0.775879H66.0368V3.45461H59.6678V11.8257H64.8077V14.3928H59.6678V23.7683H66.0368V26.3355H56.0922V0.775879H56.2039Z" fill="#111111"/>
<path d="M68.942 0.775879H71.4002L78.6632 17.6296V0.775879H81.5684V26.2238H79.3336L71.9589 8.81208V26.2238H68.942V0.775879Z" fill="#111111"/>
<path d="M84.9204 0.775879H94.7533V3.45461H88.3843V11.8257H93.5242V14.3928H88.3843V23.7683H94.7533V26.3355H84.9204V0.775879Z" fill="#111111"/>
<path d="M97.6585 0.775874H102.798C104.82 0.636359 106.83 1.18735 108.497 2.33847C109.726 3.34299 110.285 5.12882 110.285 7.47271C110.285 10.7095 109.279 12.7186 107.156 13.3882L110.732 26.1122H107.268L103.916 14.1695H101.122V26.1122H97.5468V0.775874H97.6585ZM102.575 11.714C103.727 11.8089 104.875 11.4925 105.815 10.8211C106.486 10.2631 106.821 9.14691 106.821 7.47271C106.852 6.64101 106.739 5.81024 106.486 5.0172C106.234 4.44814 105.802 3.9775 105.257 3.67784C104.487 3.32753 103.642 3.1741 102.798 3.23138H101.234V11.6024H102.575V11.714Z" fill="#111111"/>
<path d="M114.754 24.3264C113.593 22.3749 113.048 20.1188 113.19 17.8528V9.37017C113.162 7.75271 113.35 6.13877 113.749 4.57078C114.123 3.39907 114.868 2.38056 115.872 1.66882C117.119 0.931132 118.559 0.581418 120.006 0.66429C122.353 0.66429 124.029 1.22236 125.034 2.45011C126.191 4.07129 126.744 6.04529 126.599 8.03081V8.92372H123.246V8.14242C123.251 7.20765 123.177 6.27415 123.023 5.35207C122.929 4.76939 122.607 4.24769 122.129 3.90109C121.501 3.48931 120.756 3.29338 120.006 3.34302C119.205 3.29174 118.412 3.52938 117.771 4.01271C117.508 4.23394 117.294 4.50644 117.14 4.81351C116.986 5.12058 116.897 5.45577 116.877 5.79853C116.73 6.79634 116.655 7.80351 116.654 8.81211V18.2993C116.572 19.7447 116.8 21.1909 117.324 22.5406C117.771 23.4335 118.665 23.7684 120.006 23.7684C120.535 23.8343 121.073 23.7423 121.55 23.5039C122.027 23.2656 122.423 22.8916 122.688 22.429C123.278 21.0176 123.545 19.4922 123.47 17.9644V16.1786H120.229V13.6115H126.71V26.2239H124.476L124.14 23.3219C123.847 24.2945 123.237 25.1413 122.407 25.7278C121.577 26.3143 120.575 26.6068 119.559 26.5587C118.636 26.613 117.714 26.4374 116.875 26.0478C116.036 25.6582 115.308 25.0667 114.754 24.3264Z" fill="#111111"/>
<path d="M133.861 17.2947L128.386 0.887451H131.738L135.649 13.165L139.448 0.887451H142.8L137.325 17.2947V26.2238H133.973V17.2947H133.861Z" fill="#111111"/>
</g>
<defs>
<clipPath id="clip0_87226_467">
<rect width="142.8" height="26.1176" fill="white" transform="translate(0 0.441162)"/>
</clipPath>
</defs>
</svg>

<svg id="vk-icon" width="28" height="17" viewBox="0 0 28 17" fill="currentColor">
<path d="M0.5 2.33876C0.5 1.48373 1.0151 1.02268 2.04531 0.955621L6.01515 0.980769C6.28158 0.980769 6.45921 1.10651 6.54802 1.35799C6.95655 2.61538 7.41392 3.70094 7.92014 4.61465C8.42637 5.52835 9.08801 6.58038 9.90507 7.77071C9.97611 7.9216 10.0916 7.99704 10.2514 7.99704C10.3758 7.99704 10.4735 7.93836 10.5445 7.82101L10.6244 7.54438L10.6511 3.19379C10.6511 2.89201 10.5756 2.69083 10.4246 2.59024C10.2736 2.48965 9.99388 2.4142 9.58535 2.36391C9.26563 2.31361 9.10577 2.12919 9.10577 1.81065C9.10577 1.74359 9.11465 1.69329 9.13241 1.65976C9.50542 0.57002 10.5711 0.0251479 12.3296 0.0251479L13.8216 0C14.4966 0 15.0561 0.15927 15.5001 0.477811C15.9442 0.796351 16.1662 1.29931 16.1662 1.98669V7.69527C16.2906 7.77909 16.406 7.82101 16.5126 7.82101C16.779 7.82101 17.0099 7.67012 17.2053 7.36834C19.1592 4.78649 20.216 3.05966 20.3759 2.18787C20.3759 2.1711 20.3936 2.12919 20.4291 2.06213C20.5535 1.81065 20.7577 1.5927 21.0419 1.40828C21.3261 1.22387 21.5748 1.09813 21.788 1.03107C21.859 0.997535 21.9389 0.980769 22.0277 0.980769H26.1574L26.4239 1.00592C26.7791 1.00592 27.0544 1.16519 27.2498 1.48373C27.3209 1.58432 27.3697 1.69329 27.3964 1.81065C27.423 1.92801 27.4408 2.04536 27.4496 2.16272C27.4585 2.28008 27.463 2.34714 27.463 2.36391V2.53994C27.3386 3.22732 27.0233 3.9608 26.5171 4.74038C26.0109 5.51997 25.367 6.36243 24.5855 7.26775C23.804 8.17308 23.3155 8.76825 23.1201 9.05326C22.9603 9.25444 22.8803 9.43886 22.8803 9.60651C22.8803 9.74063 22.9514 9.89152 23.0935 10.0592L26.9834 14.6864C27.1965 14.9546 27.3031 15.248 27.3031 15.5666C27.3031 15.9522 27.1432 16.2707 26.8235 16.5222C26.5038 16.7737 26.1219 16.9162 25.6779 16.9497L25.2249 16.9749H21.1752C21.1574 16.9749 21.1219 16.979 21.0686 16.9874C21.0153 16.9958 20.9798 17 20.962 17C20.5712 17 20.2071 16.8407 19.8696 16.5222C19.7453 16.3881 18.9105 15.3989 17.3652 13.5547C17.2764 13.4374 17.152 13.3284 16.9922 13.2278C16.9211 13.4961 16.8279 13.8817 16.7124 14.3846C16.597 14.8876 16.5126 15.248 16.4593 15.466L16.3794 15.8935C16.2018 16.4803 15.8287 16.8323 15.2604 16.9497L14.8874 16.9749H12.2763C10.8021 16.9749 9.33224 16.3378 7.86686 15.0636C6.40148 13.7894 5.08264 12.1423 3.91034 10.122C2.73803 8.10182 1.64566 5.75049 0.633216 3.06805C0.544405 2.8501 0.5 2.607 0.5 2.33876ZM16.5126 8.85207C16.1396 8.85207 15.8021 8.75567 15.5001 8.56287C15.1982 8.37007 15.0472 8.10602 15.0472 7.77071V1.98669C15.0472 1.65138 14.9584 1.41248 14.7808 1.26997C14.6032 1.12747 14.2923 1.05621 13.8483 1.05621L12.3296 1.10651C11.5658 1.10651 10.9886 1.23225 10.5978 1.48373C11.3793 1.8358 11.7701 2.40582 11.7701 3.19379V7.61982C11.7346 8.03895 11.5569 8.38683 11.2372 8.66346C10.9175 8.94009 10.5623 9.0784 10.1715 9.0784C9.63863 9.0784 9.2301 8.83531 8.94591 8.34911C7.56046 6.37081 6.53025 4.4931 5.85529 2.71598L5.6155 2.06213L2.07195 2.03698C1.84104 2.03698 1.71227 2.04956 1.68562 2.0747C1.65898 2.09985 1.64566 2.1711 1.64566 2.28846C1.64566 2.43935 1.66342 2.59862 1.69895 2.76627L2.25845 4.17456C3.75048 7.81262 5.37127 10.6795 7.12085 12.7751C8.87042 14.8708 10.5889 15.9186 12.2763 15.9186H14.9406C15.0472 15.9186 15.1271 15.8893 15.1804 15.8306C15.2337 15.7719 15.2781 15.6588 15.3136 15.4911L15.3669 15.2396L15.8732 13.0266C16.0152 12.7249 16.1396 12.5237 16.2462 12.4231C16.4415 12.2387 16.6725 12.1465 16.9389 12.1465C17.3652 12.1465 17.8003 12.3895 18.2444 12.8757L20.5091 15.5917C20.6512 15.8097 20.8022 15.9186 20.962 15.9186H25.3581C25.891 15.9186 26.1574 15.7929 26.1574 15.5414C26.1574 15.4576 26.1308 15.3738 26.0775 15.2899L22.2142 10.7382C21.9123 10.3861 21.7613 10.0089 21.7613 9.60651C21.7613 9.20414 21.9034 8.81854 22.1876 8.4497C22.4185 8.1144 22.867 7.55695 23.5331 6.77737C24.1992 5.99778 24.7809 5.26849 25.2782 4.5895C25.7756 3.9105 26.1042 3.29438 26.264 2.74112L26.3439 2.4142C26.3262 2.38067 26.3173 2.32618 26.3173 2.25074C26.3173 2.1753 26.3084 2.11243 26.2907 2.06213H22.1077C21.8412 2.16272 21.6281 2.31361 21.4682 2.51479L21.3084 2.9926C20.8643 4.14941 19.7009 5.93491 17.8181 8.34911C17.4451 8.68442 17.0099 8.85207 16.5126 8.85207Z"/>
</svg>

<svg id="telegram-icon" width="21" height="18" viewBox="0 0 21 18" fill="currentColor">
<path fill-rule="evenodd" clip-rule="evenodd" d="M19.9608 0.152905C20.1393 0.302216 20.2255 0.534898 20.1872 0.764481L17.5611 16.5214C17.5244 16.7411 17.3789 16.9273 17.1745 17.0159C16.97 17.1045 16.7346 17.0833 16.5493 16.9597L8.67082 11.7074C8.51771 11.6054 8.41447 11.4437 8.38624 11.2619C8.358 11.08 8.40738 10.8947 8.52233 10.751L11.133 7.48773L6.77303 10.3944C6.577 10.525 6.32597 10.5407 6.11524 10.4353L0.862931 7.80915C0.627693 7.69153 0.485347 7.44488 0.5012 7.18235C0.517052 6.91983 0.688044 6.6921 0.935726 6.60364L19.3188 0.0382579C19.538 -0.0400244 19.7822 0.00359465 19.9608 0.152905ZM2.82626 7.32275L6.36168 9.09046L13.9231 4.0495C14.1925 3.86994 14.5525 3.91349 14.7712 4.1521C14.99 4.3907 15.0022 4.75314 14.8 5.00591L9.99502 11.0121L16.4328 15.3039L18.7083 1.65058L2.82626 7.32275Z"/>
</svg>

<svg id="youtube-icon" width="25" height="19" viewBox="0 0 25 19" fill="currentColor">
<path d="M16.3509 8.79275L11.1145 5.30184C11.0159 5.23691 10.9016 5.19985 10.7837 5.19459C10.6657 5.18934 10.5486 5.21608 10.4446 5.27198C10.3406 5.32789 10.2537 5.41087 10.193 5.51215C10.1324 5.61343 10.1002 5.72924 10.1 5.84729V12.8291C10.1001 12.9481 10.1327 13.0648 10.1942 13.1667C10.2557 13.2686 10.3438 13.3518 10.4491 13.4073C10.5524 13.4631 10.6691 13.4895 10.7864 13.4837C10.9037 13.478 11.0172 13.4402 11.1145 13.3746L16.3509 9.88366C16.4409 9.82395 16.5148 9.7429 16.5658 9.64772C16.6169 9.55255 16.6436 9.44621 16.6436 9.3382C16.6436 9.23019 16.6169 9.12385 16.5658 9.02868C16.5148 8.93351 16.4409 8.85245 16.3509 8.79275ZM11.4091 11.6073V7.06911L14.8127 9.3382L11.4091 11.6073ZM23.8891 3.04366C23.7942 2.67547 23.6131 2.33511 23.3609 2.05061C23.1086 1.76611 22.7924 1.54561 22.4382 1.40729C18.7182 -0.0217993 12.7509 1.91553e-05 12.5 1.91553e-05C12.2491 1.91553e-05 6.28182 -0.0217993 2.56182 1.40729C2.20764 1.54561 1.8914 1.76611 1.63914 2.05061C1.38689 2.33511 1.20584 2.67547 1.11091 3.04366C0.827273 4.11275 0.5 6.07638 0.5 9.3382C0.5 12.6 0.827273 14.5637 1.11091 15.6327C1.20584 16.0009 1.38689 16.3413 1.63914 16.6258C1.8914 16.9103 2.20764 17.1308 2.56182 17.2691C6.28182 18.6982 12.2491 18.6764 12.5 18.6764H12.5764C13.3291 18.6764 18.8927 18.6327 22.4382 17.2691C22.7924 17.1308 23.1086 16.9103 23.3609 16.6258C23.6131 16.3413 23.7942 16.0009 23.8891 15.6327C24.1727 14.5637 24.5 12.6 24.5 9.3382C24.5 6.07638 24.1727 4.11275 23.8891 3.04366ZM22.6236 15.3055C22.5807 15.472 22.499 15.6259 22.3853 15.7548C22.2715 15.8838 22.1289 15.984 21.9691 16.0473C18.4782 17.3891 12.5655 17.3673 12.5 17.3673C12.4345 17.3673 6.52182 17.3891 3.03091 16.0473C2.87107 15.984 2.72846 15.8838 2.61471 15.7548C2.50096 15.6259 2.41929 15.472 2.37636 15.3055C2.11455 14.3018 1.80909 12.4582 1.80909 9.3382C1.80909 6.2182 2.11455 4.37457 2.37636 3.37093C2.41929 3.20445 2.50096 3.05047 2.61471 2.92156C2.72846 2.79264 2.87107 2.69243 3.03091 2.62911C6.52182 1.28729 12.4345 1.30911 12.5 1.30911C12.5655 1.30911 18.4782 1.28729 21.9691 2.62911C22.1289 2.69243 22.2715 2.79264 22.3853 2.92156C22.499 3.05047 22.5807 3.20445 22.6236 3.37093C22.8855 4.37457 23.1909 6.2182 23.1909 9.3382C23.1909 12.4582 22.8855 14.3018 22.6236 15.3055Z"/>
</svg>

<svg id="htmlacademy-logo" width="27" height="35" viewBox="0 0 27 35" fill="currentColor">
<path d="M13.6426 0.515754L13.5 0.5L0 1.90733V26.5129L13.5 34.5L27 26.5129V1.90733L13.6426 0.515754ZM25.2344 25.5151L13.5 32.4573L1.76561 25.5151V15.4293L13.4507 22.3451L13.4701 23.5984L5.45351 18.8548L5.44295 20.0801L13.4894 24.8885L13.5088 26.175L5.46408 21.4174L5.45351 22.6427L13.5 27.4511L21.6239 22.6182V21.3929V17.409L25.2432 15.2595L25.2344 25.5151ZM25.2344 13.9519L22.0147 15.8319L20.5325 16.7071L13.4666 12.5201L13.456 13.7454L19.4957 17.318L19.4429 17.3495L19.3126 17.4247L18.4536 17.9166L13.4666 14.9689L13.456 16.1942L17.3921 18.5222L16.4591 19.1314L16.438 19.1436L13.4666 17.402L13.456 18.6273L15.4029 19.7615L13.4155 20.9483L1.7973 14.0762L13.4349 7.11831L25.2344 13.9519ZM25.2344 12.7266L13.4401 5.81075L1.76561 12.7196V3.4897L13.5 2.26442L25.2344 3.4897V12.7266Z"/>
</svg>

<svg id="htmlacademy-logo-letter" width="112" height="15" viewBox="0 0 112 15" fill="currentColor">
<path d="M10.1114 0.535999V12H8.55938V6.784H2.37538V12H0.823375V0.535999H2.37538V5.648H8.55938V0.535999H10.1114ZM20.7941 1.84H17.0821V12H15.5381V1.84H11.8181V0.535999H20.7941V1.84ZM34.4233 0.535999V12H33.0633V3.576C33.0633 3.464 33.0659 3.344 33.0713 3.216C33.0819 3.088 33.0926 2.95733 33.1033 2.824L29.1673 9.992C29.0446 10.232 28.8579 10.352 28.6073 10.352H28.3833C28.1326 10.352 27.9459 10.232 27.8233 9.992L23.8073 2.792C23.8393 3.07467 23.8553 3.336 23.8553 3.576V12H22.4953V0.535999H23.6393C23.7779 0.535999 23.8846 0.549333 23.9593 0.575999C24.0339 0.602666 24.1059 0.677333 24.1753 0.799999L28.1353 7.856C28.1993 7.984 28.2606 8.11733 28.3193 8.256C28.3833 8.39467 28.4419 8.536 28.4953 8.68C28.5486 8.536 28.6046 8.39467 28.6633 8.256C28.7219 8.112 28.7859 7.976 28.8553 7.848L32.7433 0.799999C32.8073 0.677333 32.8766 0.602666 32.9513 0.575999C33.0313 0.549333 33.1406 0.535999 33.2793 0.535999H34.4233ZM43.8586 10.696V12H37.3546V0.535999H38.8986V10.696H43.8586ZM54.7395 7.744L52.9395 3.08C52.8862 2.94133 52.8302 2.78133 52.7715 2.6C52.7128 2.41333 52.6568 2.216 52.6035 2.008C52.4915 2.44 52.3768 2.8 52.2595 3.088L50.4595 7.744H54.7395ZM57.9715 12H56.7715C56.6328 12 56.5208 11.9653 56.4355 11.896C56.3502 11.8267 56.2862 11.7387 56.2435 11.632L55.1715 8.864H50.0275L48.9555 11.632C48.9235 11.728 48.8622 11.8133 48.7715 11.888C48.6808 11.9627 48.5688 12 48.4355 12H47.2355L51.8195 0.535999H53.3875L57.9715 12ZM64.5649 5.336C64.5222 5.39467 64.4795 5.44 64.4369 5.472C64.3942 5.504 64.3355 5.52 64.2609 5.52C64.1809 5.52 64.0929 5.488 63.9969 5.424C63.9009 5.35467 63.7809 5.28 63.6369 5.2C63.4982 5.12 63.3249 5.048 63.1169 4.984C62.9142 4.91467 62.6635 4.88 62.3649 4.88C61.9649 4.88 61.6129 4.952 61.3089 5.096C61.0049 5.23467 60.7489 5.43733 60.5409 5.704C60.3382 5.97067 60.1835 6.29333 60.0769 6.672C59.9755 7.05067 59.9249 7.47467 59.9249 7.944C59.9249 8.43467 59.9809 8.872 60.0929 9.256C60.2049 9.63467 60.3622 9.95467 60.5649 10.216C60.7729 10.472 61.0209 10.6693 61.3089 10.808C61.6022 10.9413 61.9302 11.008 62.2929 11.008C62.6395 11.008 62.9249 10.968 63.1489 10.888C63.3729 10.8027 63.5569 10.7093 63.7009 10.608C63.8502 10.5067 63.9729 10.416 64.0689 10.336C64.1702 10.2507 64.2689 10.208 64.3649 10.208C64.4822 10.208 64.5729 10.2533 64.6369 10.344L65.0369 10.864C64.8609 11.0827 64.6609 11.2693 64.4369 11.424C64.2129 11.5787 63.9702 11.7093 63.7089 11.816C63.4529 11.9173 63.1835 11.992 62.9009 12.04C62.6182 12.088 62.3302 12.112 62.0369 12.112C61.5302 12.112 61.0582 12.0187 60.6209 11.832C60.1889 11.6453 59.8129 11.376 59.4929 11.024C59.1729 10.6667 58.9222 10.2293 58.7409 9.712C58.5595 9.19467 58.4689 8.60533 58.4689 7.944C58.4689 7.34133 58.5515 6.784 58.7169 6.272C58.8875 5.76 59.1329 5.32 59.4529 4.952C59.7782 4.57867 60.1755 4.288 60.6449 4.08C61.1195 3.872 61.6635 3.768 62.2769 3.768C62.8475 3.768 63.3489 3.86133 63.7809 4.048C64.2182 4.22933 64.6049 4.488 64.9409 4.824L64.5649 5.336ZM70.9575 8.352C70.3015 8.37333 69.7415 8.42667 69.2775 8.512C68.8188 8.592 68.4428 8.69867 68.1495 8.832C67.8615 8.96533 67.6508 9.12267 67.5175 9.304C67.3895 9.48533 67.3255 9.688 67.3255 9.912C67.3255 10.1253 67.3602 10.3093 67.4295 10.464C67.4988 10.6187 67.5922 10.7467 67.7095 10.848C67.8322 10.944 67.9735 11.016 68.1335 11.064C68.2988 11.1067 68.4748 11.128 68.6615 11.128C68.9122 11.128 69.1415 11.104 69.3495 11.056C69.5575 11.0027 69.7522 10.928 69.9335 10.832C70.1202 10.736 70.2962 10.6213 70.4615 10.488C70.6322 10.3547 70.7975 10.2027 70.9575 10.032V8.352ZM66.3575 5.04C66.8055 4.608 67.2882 4.28533 67.8055 4.072C68.3228 3.85867 68.8962 3.752 69.5255 3.752C69.9788 3.752 70.3815 3.82667 70.7335 3.976C71.0855 4.12533 71.3815 4.33333 71.6215 4.6C71.8615 4.86667 72.0428 5.18933 72.1655 5.568C72.2882 5.94667 72.3495 6.36267 72.3495 6.816V12H71.7175C71.5788 12 71.4722 11.9787 71.3975 11.936C71.3228 11.888 71.2642 11.7973 71.2215 11.664L71.0615 10.896C70.8482 11.0933 70.6402 11.2693 70.4375 11.424C70.2348 11.5733 70.0215 11.7013 69.7975 11.808C69.5735 11.9093 69.3335 11.9867 69.0775 12.04C68.8268 12.0987 68.5468 12.128 68.2375 12.128C67.9228 12.128 67.6268 12.0853 67.3495 12C67.0722 11.9093 66.8295 11.776 66.6215 11.6C66.4188 11.424 66.2562 11.2027 66.1335 10.936C66.0162 10.664 65.9575 10.344 65.9575 9.976C65.9575 9.656 66.0455 9.34933 66.2215 9.056C66.3975 8.75733 66.6828 8.49333 67.0775 8.264C67.4722 8.03467 67.9868 7.848 68.6215 7.704C69.2562 7.55467 70.0348 7.46933 70.9575 7.448V6.816C70.9575 6.18667 70.8215 5.712 70.5495 5.392C70.2775 5.06667 69.8802 4.904 69.3575 4.904C69.0055 4.904 68.7095 4.94933 68.4695 5.04C68.2348 5.12533 68.0295 5.224 67.8535 5.336C67.6828 5.44267 67.5335 5.54133 67.4055 5.632C67.2828 5.71733 67.1602 5.76 67.0375 5.76C66.9415 5.76 66.8588 5.736 66.7895 5.688C66.7202 5.63467 66.6615 5.57067 66.6135 5.496L66.3575 5.04ZM79.7986 5.824C79.532 5.46667 79.244 5.21867 78.9346 5.08C78.6253 4.936 78.2786 4.864 77.8946 4.864C77.1426 4.864 76.564 5.13333 76.1586 5.672C75.7533 6.21067 75.5506 6.97867 75.5506 7.976C75.5506 8.504 75.596 8.95733 75.6866 9.336C75.7773 9.70933 75.9106 10.0187 76.0866 10.264C76.2626 10.504 76.4786 10.68 76.7346 10.792C76.9906 10.904 77.2813 10.96 77.6066 10.96C78.076 10.96 78.484 10.8533 78.8306 10.64C79.1826 10.4267 79.5053 10.1253 79.7986 9.736V5.824ZM81.2226 0.216V12H80.3746C80.172 12 80.044 11.9013 79.9906 11.704L79.8626 10.72C79.516 11.136 79.1213 11.472 78.6786 11.728C78.236 11.984 77.724 12.112 77.1426 12.112C76.6786 12.112 76.2573 12.024 75.8786 11.848C75.5 11.6667 75.1773 11.4027 74.9106 11.056C74.644 10.7093 74.4386 10.2773 74.2946 9.76C74.1506 9.24267 74.0786 8.648 74.0786 7.976C74.0786 7.37867 74.1586 6.824 74.3186 6.312C74.4786 5.79467 74.708 5.34667 75.0066 4.968C75.3053 4.58933 75.6706 4.29333 76.1026 4.08C76.54 3.86133 77.0306 3.752 77.5746 3.752C78.0706 3.752 78.4946 3.83733 78.8466 4.008C79.204 4.17333 79.5213 4.40533 79.7986 4.704V0.216H81.2226ZM88.8958 7.064C88.8958 6.73333 88.8478 6.432 88.7518 6.16C88.6611 5.88267 88.5251 5.64533 88.3438 5.448C88.1678 5.24533 87.9518 5.09067 87.6958 4.984C87.4398 4.872 87.1491 4.816 86.8238 4.816C86.1411 4.816 85.5998 5.016 85.1998 5.416C84.8051 5.81067 84.5598 6.36 84.4638 7.064H88.8958ZM90.0478 10.864C89.8718 11.0773 89.6611 11.264 89.4158 11.424C89.1704 11.5787 88.9064 11.7067 88.6238 11.808C88.3464 11.9093 88.0584 11.984 87.7598 12.032C87.4611 12.0853 87.1651 12.112 86.8718 12.112C86.3118 12.112 85.7944 12.0187 85.3198 11.832C84.8504 11.64 84.4424 11.3627 84.0958 11C83.7544 10.632 83.4878 10.1787 83.2958 9.64C83.1038 9.10133 83.0078 8.48267 83.0078 7.784C83.0078 7.21867 83.0931 6.69067 83.2638 6.2C83.4398 5.70933 83.6904 5.28533 84.0158 4.928C84.3411 4.56533 84.7384 4.28267 85.2078 4.08C85.6771 3.872 86.2051 3.768 86.7918 3.768C87.2771 3.768 87.7251 3.85067 88.1358 4.016C88.5518 4.176 88.9091 4.41067 89.2078 4.72C89.5118 5.024 89.7491 5.40267 89.9198 5.856C90.0904 6.304 90.1758 6.816 90.1758 7.392C90.1758 7.616 90.1518 7.76533 90.1038 7.84C90.0558 7.91467 89.9651 7.952 89.8318 7.952H84.4158C84.4318 8.464 84.5011 8.90933 84.6238 9.288C84.7518 9.66667 84.9278 9.984 85.1518 10.24C85.3758 10.4907 85.6424 10.68 85.9518 10.808C86.2611 10.9307 86.6078 10.992 86.9918 10.992C87.3491 10.992 87.6558 10.952 87.9118 10.872C88.1731 10.7867 88.3971 10.696 88.5838 10.6C88.7704 10.504 88.9251 10.416 89.0478 10.336C89.1758 10.2507 89.2851 10.208 89.3758 10.208C89.4931 10.208 89.5838 10.2533 89.6478 10.344L90.0478 10.864ZM91.9249 12V3.896H92.7809C92.9835 3.896 93.1089 3.99467 93.1569 4.192L93.2609 5.024C93.5595 4.656 93.8955 4.35467 94.2689 4.12C94.6422 3.88533 95.0742 3.768 95.5649 3.768C96.1089 3.768 96.5489 3.92 96.8849 4.224C97.2262 4.528 97.4715 4.93867 97.6209 5.456C97.7382 5.16267 97.8875 4.90933 98.0689 4.696C98.2555 4.48267 98.4635 4.30667 98.6929 4.168C98.9222 4.02933 99.1649 3.928 99.4209 3.864C99.6822 3.8 99.9462 3.768 100.213 3.768C100.64 3.768 101.018 3.83733 101.349 3.976C101.685 4.10933 101.968 4.30667 102.197 4.568C102.432 4.82933 102.61 5.152 102.733 5.536C102.856 5.91467 102.917 6.34933 102.917 6.84V12H101.485V6.84C101.485 6.20533 101.346 5.72533 101.069 5.4C100.792 5.06933 100.392 4.904 99.8689 4.904C99.6342 4.904 99.4102 4.94667 99.1969 5.032C98.9889 5.112 98.8049 5.232 98.6449 5.392C98.4849 5.552 98.3569 5.75467 98.2609 6C98.1702 6.24 98.1249 6.52 98.1249 6.84V12H96.6929V6.84C96.6929 6.18933 96.5622 5.704 96.3009 5.384C96.0395 5.064 95.6582 4.904 95.1569 4.904C94.8049 4.904 94.4795 5 94.1809 5.192C93.8822 5.37867 93.6075 5.63467 93.3569 5.96V12H91.9249ZM111.87 3.896L107.35 14.392C107.302 14.4987 107.241 14.584 107.166 14.648C107.097 14.712 106.987 14.744 106.838 14.744H105.782L107.262 11.528L103.918 3.896H105.15C105.273 3.896 105.369 3.928 105.438 3.992C105.513 4.05067 105.563 4.11733 105.59 4.192L107.758 9.296C107.843 9.52 107.915 9.75467 107.974 10C108.049 9.74933 108.129 9.512 108.214 9.288L110.318 4.192C110.35 4.10667 110.403 4.03733 110.478 3.984C110.558 3.92533 110.646 3.896 110.742 3.896H111.87Z"/>
</svg>

<!-- <svg id="slider-mobile" width="40" height="256" viewBox="0 0 40 256" fill="currentColor">
<rect x="18" width="4" height="256" rx="2" fill="#666666"/>
<rect x="1" y="109" width="38" height="38" rx="19" fill="white"/>
<path d="M16 119L8 128L16 137V119Z" fill="#666666"/>
<path d="M32 128L24 119V137L32 128Z" fill="#666666"/>
<rect x="1" y="109" width="38" height="38" rx="19" stroke="#666666" stroke-width="2"/>
</svg> -->

<svg id="slider-mobile" width="40" height="258" viewBox="0 0 40 258" fill="none" xmlns="http://www.w3.org/2000/svg">
<rect x="18" width="4" height="110.02" rx="2" fill="#666666"/>
<rect x="18" y="148" width="4" height="108.02" rx="2" fill="#666666"/>
<path d="M16 120L8 129L16 138V120Z" fill="#666666"/>
<path d="M32 129L24 120V138L32 129Z" fill="#666666"/>
<rect x="1" y="110" width="38" height="38" rx="19" stroke="#666666" stroke-width="2"/>
</svg>

<svg id="slider-tablet" width="40" height="512" viewBox="0 0 40 512" fill="none" xmlns="http://www.w3.org/2000/svg">
<rect x="18" width="4" height="237" rx="2" fill="#666666"/>
<rect x="18" y="275" width="4" height="237" rx="2" fill="#666666"/>
<path d="M16 247L8 256L16 265V247Z" fill="#666666"/>
<path d="M32 256L24 247V265L32 256Z" fill="#666666"/>
<rect x="1" y="237" width="38" height="38" rx="19" stroke="#666666" stroke-width="2"/>
</svg>

<svg id="pro-icon-mobile" width="67" height="28" viewBox="0 0 67 28" fill="none" xmlns="http://www.w3.org/2000/svg">
<path d="M61.5591 2.87843C62.1364 1.95997 62.9036 1.17573 63.8091 0.578427C64.3091 0.228427 64.6091 0.228427 64.9091 0.878427C65.3091 1.82843 65.6591 2.82843 65.3591 3.87843C65.3045 4.05651 65.2942 4.24523 65.3291 4.4282C65.3639 4.61117 65.4429 4.78288 65.5591 4.92843C65.8591 5.32843 66.1091 5.72843 66.3591 6.07843C66.6994 6.51031 66.9201 7.02408 66.9991 7.5682C67.078 8.11231 67.0125 8.66763 66.8091 9.17843C66.6256 9.67433 66.5908 10.213 66.7091 10.7284C66.809 11.2234 66.809 11.7334 66.7091 12.2284C66.6687 12.5991 66.5187 12.9494 66.2782 13.2344C66.0377 13.5194 65.7177 13.7262 65.3591 13.8284C64.7196 13.9501 64.1488 14.3069 63.7591 14.8284C63.7119 14.9052 63.6457 14.9686 63.5669 15.0124C63.488 15.0562 63.3993 15.0789 63.3091 15.0784C62.7091 15.1784 61.2091 13.8284 61.2091 13.2284V12.9284C61.2591 11.1284 61.1591 10.9784 59.5091 10.2284C59.1638 10.1066 58.8544 9.90037 58.6091 9.62843C58.3091 9.22843 57.9091 9.27843 57.4591 9.42843C57.0091 9.57843 56.7591 9.87843 56.8091 10.3784C56.9599 11.5889 57.0101 12.8097 56.9591 14.0284C56.9624 14.1675 56.9966 14.3041 57.0591 14.4284C58.6091 16.6784 59.2091 19.3284 59.9591 21.8784C60.5591 23.8284 61.6591 24.8784 63.6591 25.0284C63.9792 25.054 64.2968 25.1041 64.6091 25.1784C65.02 25.2444 65.4017 25.4322 65.7048 25.7174C66.0078 26.0027 66.2183 26.3723 66.3091 26.7784C66.6591 27.8284 66.4591 28.0784 65.4091 28.0784H62.1591C61.7384 28.0997 61.3259 27.9562 61.0091 27.6784C60.5031 27.2514 59.9282 26.9132 59.3091 26.6784C58.6247 26.4258 58.0323 25.9728 57.6091 25.3784C57.0234 24.5602 56.3531 23.806 55.6091 23.1284C54.2091 21.6784 52.7091 20.2784 51.4091 18.7784C50.4195 17.7563 49.8486 16.4006 49.8091 14.9784C49.8091 14.5284 49.7091 14.3284 49.2091 14.5284C49.0594 14.6234 48.8864 14.6753 48.7091 14.6784C47.3091 14.6784 46.6091 15.5284 46.1091 16.7784C45.6591 17.8284 45.0591 18.8284 44.5091 19.8784C44.1972 20.5357 44.0269 21.2511 44.0091 21.9784C44.0091 23.1784 44.3091 23.5784 45.4091 23.9784C46.1091 24.2284 46.7591 24.4784 47.1091 25.1784C47.5091 25.9784 47.4091 26.1784 46.5591 26.2284H43.1591C42.9631 26.2478 42.7659 26.2052 42.5955 26.1065C42.425 26.0078 42.2899 25.8581 42.2091 25.6784L41.3091 24.1784C41.0438 23.7871 40.874 23.3389 40.8132 22.87C40.7524 22.4011 40.8024 21.9245 40.9591 21.4784C41.1755 20.6102 41.1926 19.7042 41.0091 18.8284C40.8831 18.2185 40.8939 17.5882 41.0409 16.9829C41.1879 16.3777 41.4674 15.8126 41.8591 15.3284C42.1591 14.9784 42.1591 14.8284 41.6591 14.7284C39.6146 14.2941 37.6325 13.6054 35.7591 12.6784C35.7459 12.6784 35.7331 12.6732 35.7238 12.6638C35.7144 12.6544 35.7091 12.6417 35.7091 12.6284C34.1091 12.0284 33.8091 12.1284 33.3591 13.7784C32.9591 15.1784 32.5591 16.5784 32.2591 18.0284C31.9091 19.6284 32.3091 21.1284 32.8091 22.6284C33.0091 23.2284 33.6091 23.1784 34.0591 23.3284C35.0591 23.6284 35.9091 24.0284 36.3091 25.0784C36.6591 25.8784 36.6091 25.9784 35.7591 25.9784C34.9091 25.9784 34.0591 25.9284 33.1591 25.9784C32.3997 25.9922 31.6584 25.7451 31.0591 25.2784C28.6591 23.6784 27.9591 21.2284 27.7591 18.5784C27.6591 16.9284 26.7591 15.6284 25.7091 14.3784C25.5091 14.1284 25.3091 14.0284 25.0091 14.2284C23.9359 14.8202 22.8153 15.3219 21.6591 15.7284C19.2462 16.5804 17.1289 18.1077 15.5591 20.1284C14.9729 20.8659 14.5933 21.746 14.4591 22.6784C14.3091 23.5784 14.5591 23.9784 15.4591 24.2284C16.3591 24.4784 16.8091 24.9784 16.9091 25.9284C16.9591 26.3284 16.8091 26.5284 16.4091 26.5284H12.3591C12.2266 26.519 12.0982 26.4778 11.9851 26.4081C11.8719 26.3385 11.7772 26.2425 11.7091 26.1284C11.081 25.3508 10.7449 24.3779 10.7591 23.3784C10.7329 21.6509 10.8837 19.9252 11.2091 18.2284C11.2759 17.7203 11.4656 17.2361 11.7618 16.8178C12.0581 16.3996 12.4519 16.06 12.9091 15.8284C15.8591 14.4284 17.4091 11.7784 18.8091 9.02843C19.1091 8.47843 18.8591 8.37843 18.3591 8.42843C16.9598 8.62269 15.634 9.17368 14.5091 10.0284C13.0362 11.1029 11.6487 12.2897 10.3591 13.5784C8.98394 14.9753 7.16046 15.8427 5.20911 16.0284C1.55911 16.2284 -0.140885 14.1784 0.00911497 10.8784C0.0426462 9.75323 0.466939 8.67482 1.20912 7.82843C1.46713 7.49393 1.81898 7.24392 2.21975 7.11033C2.62052 6.97674 3.05201 6.96563 3.45912 7.07843C4.20912 7.27843 4.40911 7.67843 4.10911 8.42843C3.95911 8.72843 3.75911 8.97843 3.60911 9.27843C3.39341 9.58491 3.22488 9.92198 3.10911 10.2784C2.55911 11.7784 3.30911 12.8284 4.85911 12.9784C6.50911 13.1284 7.85912 12.4284 9.10912 11.4284C10.6151 10.2226 11.9595 8.82775 13.1091 7.27843C13.9687 6.14713 15.0512 5.20407 16.2895 4.50749C17.5279 3.81091 18.8959 3.37559 20.3091 3.22843C21.4591 3.07843 22.4591 2.57843 23.5591 2.27843C25.6164 1.65123 27.7586 1.34761 29.9091 1.37843C30.9052 1.41991 31.8974 1.23172 32.8091 0.828427C35.2591 -0.171573 37.8091 -0.171573 40.3591 0.328427C42.3591 0.728427 44.3591 1.22843 46.3091 1.72843C47.4696 1.94467 48.6629 1.91057 49.8091 1.62843C52.0034 1.07219 54.248 0.737189 56.5091 0.628427C57.9904 0.55636 59.4667 0.848196 60.8091 1.47843C61.8091 1.92843 61.8091 1.92843 61.5591 2.87843Z" fill="black"/>
</svg>

<svg id="pro-icon-tablet" width="268" height="112" viewBox="0 0 268 112" fill="none" xmlns="http://www.w3.org/2000/svg">
<path d="M246.236 11.5137C248.545 7.83987 251.614 4.70291 255.236 2.31371C257.236 0.913709 258.436 0.913708 259.636 3.51371C261.236 7.31371 262.636 11.3137 261.436 15.5137C261.218 16.226 261.177 16.9809 261.316 17.7128C261.456 18.4447 261.772 19.1315 262.236 19.7137C263.436 21.3137 264.436 22.9137 265.436 24.3137C266.797 26.0412 267.68 28.0963 267.996 30.2728C268.312 32.4492 268.05 34.6705 267.236 36.7137C266.502 38.6973 266.363 40.8522 266.836 42.9137C267.236 44.8937 267.236 46.9337 266.836 48.9137C266.675 50.3965 266.075 51.7975 265.113 52.9375C264.151 54.0775 262.871 54.9048 261.436 55.3137C258.878 55.8005 256.595 57.2275 255.036 59.3137C254.848 59.6209 254.583 59.8743 254.267 60.0495C253.952 60.2246 253.597 60.3156 253.236 60.3137C250.836 60.7137 244.836 55.3137 244.836 52.9137V51.7137C245.036 44.5137 244.636 43.9137 238.036 40.9137C236.655 40.4265 235.417 39.6015 234.436 38.5137C233.236 36.9137 231.636 37.1137 229.836 37.7137C228.036 38.3137 227.036 39.5137 227.236 41.5137C227.84 46.3554 228.04 51.2388 227.836 56.1137C227.85 56.6701 227.986 57.2165 228.236 57.7137C234.436 66.7137 236.836 77.3137 239.836 87.5137C242.236 95.3137 246.636 99.5137 254.636 100.114C255.917 100.216 257.187 100.416 258.436 100.714C260.08 100.978 261.607 101.729 262.819 102.87C264.031 104.011 264.873 105.489 265.236 107.114C266.636 111.314 265.836 112.314 261.636 112.314H248.636C246.953 112.399 245.303 111.825 244.036 110.714C242.012 109.005 239.713 107.653 237.236 106.714C234.499 105.703 232.129 103.891 230.436 101.514C228.094 98.2407 225.412 95.224 222.436 92.5137C216.836 86.7137 210.836 81.1137 205.636 75.1137C201.678 71.0253 199.395 65.6023 199.236 59.9137C199.236 58.1137 198.836 57.3137 196.836 58.1137C196.238 58.4937 195.546 58.7012 194.836 58.7137C189.236 58.7137 186.436 62.1137 184.436 67.1137C182.636 71.3137 180.236 75.3137 178.036 79.5137C176.789 82.1428 176.108 85.0046 176.036 87.9137C176.036 92.7137 177.236 94.3137 181.636 95.9137C184.436 96.9137 187.036 97.9137 188.436 100.714C190.036 103.914 189.636 104.714 186.236 104.914H172.636C171.852 104.991 171.064 104.821 170.382 104.426C169.7 104.031 169.16 103.432 168.836 102.714L165.236 96.7137C164.175 95.1482 163.496 93.3557 163.253 91.4801C163.01 89.6045 163.21 87.6981 163.836 85.9137C164.702 82.4407 164.77 78.8169 164.036 75.3137C163.532 72.8739 163.576 70.3527 164.164 67.9318C164.752 65.5108 165.869 63.2505 167.436 61.3137C168.636 59.9137 168.636 59.3137 166.636 58.9137C158.458 57.1765 150.53 54.4217 143.036 50.7137C142.983 50.7137 142.933 50.6926 142.895 50.6551C142.858 50.6176 142.836 50.5667 142.836 50.5137C136.436 48.1137 135.236 48.5137 133.436 55.1137C131.836 60.7137 130.236 66.3137 129.036 72.1137C127.636 78.5137 129.236 84.5137 131.236 90.5137C132.036 92.9137 134.436 92.7137 136.236 93.3137C140.236 94.5137 143.636 96.1137 145.236 100.314C146.636 103.514 146.436 103.914 143.036 103.914C139.636 103.914 136.236 103.714 132.636 103.914C129.599 103.969 126.634 102.98 124.236 101.114C114.636 94.7137 111.836 84.9137 111.036 74.3137C110.636 67.7137 107.036 62.5137 102.836 57.5137C102.036 56.5137 101.236 56.1137 100.036 56.9137C95.7434 59.2808 91.2614 61.2877 86.6365 62.9137C76.985 66.3217 68.5157 72.4306 62.2365 80.5137C59.8918 83.4637 58.3732 86.9839 57.8365 90.7137C57.2365 94.3137 58.2365 95.9137 61.8365 96.9137C65.4365 97.9137 67.2365 99.9137 67.6365 103.714C67.8365 105.314 67.2365 106.114 65.6365 106.114H49.4365C48.9063 106.076 48.393 105.911 47.9403 105.632C47.4876 105.354 47.1089 104.97 46.8365 104.514C44.3242 101.403 42.9798 97.5116 43.0365 93.5137C42.9315 86.6036 43.5346 79.7009 44.8365 72.9137C45.1034 70.8811 45.8623 68.9443 47.0473 67.2714C48.2323 65.5984 49.8075 64.2399 51.6365 63.3137C63.4365 57.7137 69.6365 47.1137 75.2365 36.1137C76.4365 33.9137 75.4365 33.5137 73.4365 33.7137C67.8391 34.4908 62.5358 36.6947 58.0365 40.1137C52.1448 44.4114 46.5949 49.1589 41.4365 54.3137C35.9358 59.901 28.6418 63.3709 20.8365 64.1137C6.23646 64.9137 -0.56354 56.7137 0.0364599 43.5137C0.170585 39.0129 1.86775 34.6993 4.83646 31.3137C5.8685 29.9757 7.27593 28.9757 8.87899 28.4413C10.4821 27.907 12.208 27.8625 13.8365 28.3137C16.8365 29.1137 17.6365 30.7137 16.4365 33.7137C15.8365 34.9137 15.0365 35.9137 14.4365 37.1137C13.5737 38.3396 12.8995 39.6879 12.4365 41.1137C10.2365 47.1137 13.2365 51.3137 19.4365 51.9137C26.0365 52.5137 31.4365 49.7137 36.4365 45.7137C42.4603 40.8902 47.8379 35.311 52.4365 29.1137C55.875 24.5885 60.2046 20.8163 65.1581 18.03C70.1116 15.2436 75.5837 13.5024 81.2365 12.9137C85.8365 12.3137 89.8365 10.3137 94.2365 9.11371C102.465 6.60492 111.034 5.39042 119.636 5.51371C123.621 5.67964 127.59 4.9269 131.236 3.31371C141.036 -0.686291 151.236 -0.686292 161.436 1.31371C169.436 2.91371 177.436 4.91371 185.236 6.91371C189.878 7.77866 194.651 7.64229 199.236 6.51371C208.014 4.28878 216.992 2.94875 226.036 2.51371C231.961 2.22544 237.867 3.39278 243.236 5.91371C247.236 7.71371 247.236 7.71371 246.236 11.5137Z" fill="black"/>
</svg>

<svg id="pro-icon-desktop" width="134" height="56" viewBox="0 0 134 56" fill="none" xmlns="http://www.w3.org/2000/svg">
<path d="M123.118 5.75685C124.273 3.91994 125.807 2.35146 127.618 1.15685C128.618 0.456854 129.218 0.456854 129.818 1.75685C130.618 3.65685 131.318 5.65685 130.718 7.75685C130.609 8.11302 130.588 8.49045 130.658 8.85639C130.728 9.22234 130.886 9.56575 131.118 9.85685C131.718 10.6569 132.218 11.4569 132.718 12.1569C133.399 13.0206 133.84 14.0482 133.998 15.1364C134.156 16.2246 134.025 17.3352 133.618 18.3569C133.251 19.3487 133.182 20.4261 133.418 21.4569C133.618 22.4469 133.618 23.4668 133.418 24.4569C133.337 25.1983 133.037 25.8987 132.556 26.4688C132.075 27.0388 131.435 27.4524 130.718 27.6569C129.439 27.9002 128.298 28.6137 127.518 29.6569C127.424 29.8105 127.291 29.9372 127.134 30.0247C126.976 30.1123 126.799 30.1578 126.618 30.1569C125.418 30.3569 122.418 27.6569 122.418 26.4569V25.8569C122.518 22.2569 122.318 21.9569 119.018 20.4569C118.328 20.2133 117.709 19.8007 117.218 19.2569C116.618 18.4569 115.818 18.5569 114.918 18.8569C114.018 19.1569 113.518 19.7569 113.618 20.7569C113.92 23.1777 114.02 25.6194 113.918 28.0569C113.925 28.335 113.993 28.6083 114.118 28.8569C117.218 33.3569 118.418 38.6569 119.918 43.7569C121.118 47.6569 123.318 49.7569 127.318 50.0569C127.958 50.1079 128.594 50.2082 129.218 50.3569C130.04 50.4889 130.803 50.8644 131.41 51.4349C132.016 52.0054 132.437 52.7445 132.618 53.5569C133.318 55.6569 132.918 56.1569 130.818 56.1569H124.318C123.477 56.1994 122.652 55.9124 122.018 55.3569C121.006 54.5027 119.856 53.8265 118.618 53.3569C117.249 52.8516 116.065 51.9455 115.218 50.7569C114.047 49.1203 112.706 47.612 111.218 46.2569C108.418 43.3569 105.418 40.5569 102.818 37.5569C100.839 35.5127 99.6973 32.8012 99.6182 29.9569C99.6182 29.0569 99.4182 28.6569 98.4182 29.0569C98.1188 29.2468 97.7728 29.3506 97.4182 29.3569C94.6182 29.3569 93.2182 31.0569 92.2182 33.5569C91.3182 35.6569 90.1182 37.6569 89.0182 39.7569C88.3945 41.0714 88.0538 42.5023 88.0182 43.9569C88.0182 46.3569 88.6182 47.1569 90.8182 47.9569C92.2182 48.4569 93.5182 48.9569 94.2182 50.3569C95.0182 51.9569 94.8182 52.3569 93.1182 52.4569H86.3182C85.9262 52.4957 85.5319 52.4104 85.191 52.213C84.8501 52.0156 84.5798 51.7162 84.4182 51.3569L82.6182 48.3569C82.0876 47.5741 81.7479 46.6779 81.6264 45.7401C81.5048 44.8023 81.6048 43.849 81.9182 42.9569C82.351 41.2204 82.3852 39.4084 82.0182 37.6569C81.7662 36.437 81.7879 35.1764 82.0819 33.9659C82.3758 32.7554 82.9347 31.6252 83.7182 30.6569C84.3182 29.9569 84.3182 29.6569 83.3182 29.4569C79.2291 28.5882 75.2649 27.2108 71.5182 25.3569C71.4917 25.3569 71.4663 25.3463 71.4475 25.3276C71.4288 25.3088 71.4182 25.2834 71.4182 25.2569C68.2182 24.0569 67.6182 24.2569 66.7182 27.5569C65.9182 30.3569 65.1182 33.1569 64.5182 36.0569C63.8182 39.2569 64.6182 42.2569 65.6182 45.2569C66.0182 46.4569 67.2182 46.3569 68.1182 46.6569C70.1182 47.2569 71.8182 48.0569 72.6182 50.1569C73.3182 51.7569 73.2182 51.9569 71.5182 51.9569C69.8182 51.9569 68.1182 51.8569 66.3182 51.9569C64.7993 51.9844 63.3169 51.4902 62.1182 50.5569C57.3182 47.3569 55.9182 42.4569 55.5182 37.1569C55.3182 33.8569 53.5182 31.2569 51.4182 28.7569C51.0182 28.2569 50.6182 28.0569 50.0182 28.4569C47.8717 29.6404 45.6307 30.6439 43.3182 31.4569C38.4925 33.1608 34.2579 36.2153 31.1182 40.2569C29.9459 41.7318 29.1866 43.4919 28.9182 45.3569C28.6182 47.1569 29.1182 47.9569 30.9182 48.4569C32.7182 48.9569 33.6182 49.9569 33.8182 51.8569C33.9182 52.6569 33.6182 53.0569 32.8182 53.0569H24.7182C24.4531 53.0381 24.1965 52.9555 23.9702 52.8162C23.7438 52.6769 23.5545 52.485 23.4182 52.2569C22.1621 50.7016 21.4899 48.7558 21.5182 46.7569C21.4658 43.3018 21.7673 39.8505 22.4182 36.4569C22.5517 35.4405 22.9311 34.4721 23.5236 33.6357C24.1161 32.7992 24.9038 32.12 25.8182 31.6569C31.7182 28.8569 34.8182 23.5569 37.6182 18.0569C38.2182 16.9569 37.7182 16.7569 36.7182 16.8569C33.9196 17.2454 31.2679 18.3474 29.0182 20.0569C26.0724 22.2057 23.2975 24.5795 20.7182 27.1569C17.9679 29.9505 14.3209 31.6855 10.4182 32.0569C3.11823 32.4569 -0.28177 28.3569 0.0182299 21.7569C0.0852924 19.5065 0.933877 17.3496 2.41823 15.6569C2.93425 14.9879 3.63796 14.4878 4.4395 14.2207C5.24103 13.9535 6.10401 13.9313 6.91823 14.1569C8.41823 14.5569 8.81823 15.3569 8.21823 16.8569C7.91823 17.4569 7.51823 17.9569 7.21823 18.5569C6.78683 19.1698 6.44975 19.844 6.21823 20.5569C5.11823 23.5569 6.61823 25.6569 9.71823 25.9569C13.0182 26.2569 15.7182 24.8569 18.2182 22.8569C21.2302 20.4451 23.9189 17.6555 26.2182 14.5569C27.9375 12.2943 30.1023 10.4081 32.5791 9.01498C35.0558 7.62182 37.7918 6.75118 40.6182 6.45685C42.9182 6.15685 44.9182 5.15685 47.1182 4.55685C51.2327 3.30246 55.5172 2.69521 59.8182 2.75685C61.8103 2.83982 63.7948 2.46345 65.6182 1.65685C70.5182 -0.343146 75.6182 -0.343146 80.7182 0.656854C84.7182 1.45685 88.7182 2.45685 92.6182 3.45685C94.9392 3.88933 97.3257 3.82114 99.6182 3.25685C104.007 2.14439 108.496 1.47438 113.018 1.25685C115.981 1.11272 118.933 1.69639 121.618 2.95685C123.618 3.85685 123.618 3.85685 123.118 5.75685Z" fill="black"/>
</svg>

<svg id="slim-icon-mobile" width="36" height="50" viewBox="0 0 36 50" fill="none" xmlns="http://www.w3.org/2000/svg">
<path d="M28.2034 0H28.008C27.6778 0.187081 27.415 0.473924 27.2571 0.819588C26.968 1.37738 26.7453 1.96735 26.5937 2.57732C26.5612 2.76073 26.4688 2.92811 26.331 3.05315C26.1932 3.17818 26.0179 3.25377 25.8326 3.26804C25.2658 3.36597 24.7288 3.59243 24.2626 3.93012C23.7965 4.26781 23.4135 4.7078 23.1429 5.21649C22.7708 5.87697 22.4526 6.5665 22.1914 7.27835C21.4611 9.17526 20.9006 11.134 20.2114 13.0464C19.8874 13.9175 19.872 13.9175 18.8949 13.9175C17.7274 13.9175 17.8097 13.7371 17.7943 15.0258C17.7943 15.433 17.9177 15.6392 18.3497 15.6186C18.4834 15.6186 18.684 15.5515 18.7354 15.7268C18.7869 15.9021 18.612 15.9794 18.5091 16.0825C17.8994 16.7029 17.1276 17.1388 16.2823 17.3402C15.3051 17.6031 14.3074 17.8093 13.356 18.1289C10.9131 18.9485 8.65543 20.0928 6.89657 22.0309C5.86814 23.2347 5.04455 24.6001 4.45886 26.0722C2.57143 30.5258 1.656 35.2165 0.946286 39.9536C0.612 42.1753 0.375429 44.4072 0.195429 46.6546C0.102857 47.7577 0 48.8763 0 50H17.1411C17.1696 49.7731 17.1283 49.5429 17.0229 49.3402C16.858 48.9289 16.5901 48.5672 16.2451 48.29C15.9 48.0128 15.4895 47.8295 15.0531 47.7577C14.6931 47.6753 14.652 47.567 14.8731 47.2835C15.2338 46.801 15.5103 46.2607 15.6909 45.6856C16.5291 43.2062 16.8531 40.6186 17.2594 38.0567C17.4889 36.0999 18.0894 34.2051 19.0286 32.4742C19.7611 31.2002 20.7382 30.0842 21.9034 29.1907C22.3303 28.866 22.3457 28.866 22.4177 29.4175C22.4691 29.7835 22.4794 30.1598 22.5051 30.5309C22.6595 32.9662 22.6285 35.4097 22.4126 37.8402C22.2184 39.7242 22.1926 41.6217 22.3354 43.5103C22.5399 45.7029 22.9304 47.8739 23.5029 50H30.3429C30.2536 49.442 29.9973 48.9243 29.6078 48.5156C29.2184 48.1069 28.7143 47.8264 28.1623 47.7113C27.5177 47.6087 26.8587 47.6438 26.2286 47.8144C25.92 47.8866 25.7914 47.8144 25.7657 47.4794C25.5529 44.7505 25.7261 42.0051 26.28 39.3247C26.966 36.2304 27.4912 33.1025 27.8537 29.9536C27.9887 28.6819 28.3881 27.4528 29.0263 26.3454C29.6383 25.2526 30.1731 24.1186 30.7749 23.0206C31.0138 22.6214 31.1575 22.1723 31.195 21.7083C31.2325 21.2443 31.1626 20.7779 30.9909 20.3454C30.852 19.9794 30.7183 19.6082 30.5486 19.2577C30.0343 18.2526 29.52 17.2577 29.0469 16.2423C28.7949 15.7268 28.8514 15.6649 29.412 15.6495C30.2503 15.6495 30.2503 15.6495 30.2657 14.8041C30.2657 14.6907 30.2657 14.5773 30.2657 14.4639C30.2657 14.1082 30.132 13.9124 29.7514 13.9485C29.4943 13.9485 29.2371 13.9485 28.9697 13.9485C28.6149 13.9485 28.512 13.799 28.5994 13.433C28.7729 12.838 29.1142 12.306 29.5823 11.9009C30.0503 11.4958 30.6252 11.2349 31.2377 11.1495C32.3772 11.0505 33.5251 11.1252 34.6423 11.3711C34.7712 11.4118 34.9109 11.4001 35.0312 11.3383C35.1515 11.2766 35.2427 11.1699 35.2851 11.0412C35.4909 10.5258 35.7171 10.0103 35.9486 9.49484C36.001 9.40339 36.0242 9.29801 36.015 9.19293C36.0058 9.08785 35.9647 8.98812 35.8971 8.90722C34.2514 6.81443 32.4669 4.86082 30.0343 3.60825C29.9168 3.55754 29.8138 3.47814 29.7347 3.3773C29.6557 3.27646 29.6031 3.15738 29.5817 3.03093C29.444 2.29408 29.225 1.57487 28.9286 0.886598C28.7895 0.519904 28.5349 0.20865 28.2034 0V0Z" fill="black"/>
</svg>

<svg id="slim-icon-tablet" width="140" height="194" viewBox="0 0 140 194" fill="none" xmlns="http://www.w3.org/2000/svg">
<path d="M109.68 0H108.92C107.636 0.725875 106.614 1.83883 106 3.18C104.875 5.34423 104.009 7.63331 103.42 10C103.294 10.7116 102.934 11.3611 102.398 11.8462C101.863 12.3313 101.181 12.6246 100.46 12.68C98.2558 13.06 96.1675 13.9386 94.3546 15.2489C92.5418 16.5591 91.0523 18.2663 90 20.24C88.5532 22.8026 87.3158 25.478 86.3 28.24C83.46 35.6 81.28 43.2 78.6 50.62C77.34 54 77.28 54 73.48 54C68.94 54 69.26 53.3 69.2 58.3C69.2 59.88 69.68 60.68 71.36 60.6C71.88 60.6 72.66 60.34 72.86 61.02C73.06 61.7 72.38 62 71.98 62.4C69.6086 64.8073 66.6075 66.4984 63.32 67.28C59.52 68.3 55.64 69.1 51.94 70.34C42.44 73.52 33.66 77.96 26.82 85.48C22.8206 90.1507 19.6177 95.4483 17.34 101.16C10 118.44 6.44 136.64 3.68 155.02C2.38 163.64 1.46 172.3 0.76 181.02C0.4 185.3 0 189.64 0 194H66.66C66.7707 193.12 66.6102 192.227 66.2 191.44C65.5589 189.844 64.5171 188.441 63.1753 187.365C61.8335 186.29 60.237 185.578 58.54 185.3C57.14 184.98 56.98 184.56 57.84 183.46C59.2427 181.588 60.318 179.492 61.02 177.26C64.28 167.64 65.54 157.6 67.12 147.66C68.0125 140.068 70.3477 132.716 74 126C76.8488 121.057 80.6486 116.727 85.18 113.26C86.84 112 86.9 112 87.18 114.14C87.38 115.56 87.42 117.02 87.52 118.46C88.1202 127.909 87.9998 137.39 87.16 146.82C86.4048 154.13 86.3044 161.492 86.86 168.82C87.6551 177.327 89.1739 185.751 91.4 194H118C117.653 191.835 116.656 189.826 115.142 188.241C113.627 186.655 111.667 185.567 109.52 185.12C107.013 184.722 104.45 184.858 102 185.52C100.8 185.8 100.3 185.52 100.2 184.22C99.3725 173.632 100.046 162.98 102.2 152.58C104.868 140.574 106.91 128.438 108.32 116.22C108.845 111.286 110.398 106.517 112.88 102.22C115.26 97.98 117.34 93.58 119.68 89.32C120.609 87.771 121.168 86.0286 121.314 84.2282C121.46 82.4279 121.188 80.6182 120.52 78.94C119.98 77.52 119.46 76.08 118.8 74.72C116.8 70.82 114.8 66.96 112.96 63.02C111.98 61.02 112.2 60.78 114.38 60.72C117.64 60.72 117.64 60.72 117.7 57.44C117.7 57 117.7 56.56 117.7 56.12C117.7 54.74 117.18 53.98 115.7 54.12C114.7 54.12 113.7 54.12 112.66 54.12C111.28 54.12 110.88 53.54 111.22 52.12C111.895 49.8116 113.222 47.7473 115.042 46.1755C116.862 44.6037 119.098 43.5912 121.48 43.26C125.911 42.8758 130.376 43.1657 134.72 44.12C135.221 44.2779 135.765 44.2322 136.232 43.9927C136.7 43.7531 137.055 43.3391 137.22 42.84C138.02 40.84 138.9 38.84 139.8 36.84C140.004 36.4852 140.094 36.0763 140.058 35.6686C140.023 35.2608 139.863 34.8739 139.6 34.56C133.2 26.44 126.26 18.86 116.8 14C116.343 13.8033 115.942 13.4952 115.635 13.1039C115.328 12.7127 115.123 12.2506 115.04 11.76C114.505 8.90102 113.653 6.11051 112.5 3.44C111.959 2.01723 110.969 0.809563 109.68 0V0Z" fill="black"/>
</svg>

<svg id="slim-icon-desktop" width="70" height="97" viewBox="0 0 70 97" fill="none" xmlns="http://www.w3.org/2000/svg">
<path d="M54.84 0H54.46C53.818 0.362938 53.307 0.919413 53 1.59C52.4377 2.67211 52.0047 3.81665 51.71 5C51.6468 5.35582 51.4671 5.68054 51.1992 5.92311C50.9313 6.16567 50.5903 6.31232 50.23 6.34C49.1279 6.52999 48.0837 6.96931 47.1773 7.62443C46.2709 8.27955 45.5262 9.13313 45 10.12C44.2766 11.4013 43.6579 12.739 43.15 14.12C41.73 17.8 40.64 21.6 39.3 25.31C38.67 27 38.64 27 36.74 27C34.47 27 34.63 26.65 34.6 29.15C34.6 29.94 34.84 30.34 35.68 30.3C35.94 30.3 36.33 30.17 36.43 30.51C36.53 30.85 36.19 31 35.99 31.2C34.8043 32.4036 33.3037 33.2492 31.66 33.64C29.76 34.15 27.82 34.55 25.97 35.17C21.22 36.76 16.83 38.98 13.41 42.74C11.4103 45.0754 9.80885 47.7242 8.67 50.58C5 59.22 3.22 68.32 1.84 77.51C1.19 81.82 0.73 86.15 0.38 90.51C0.2 92.65 0 94.82 0 97H33.33C33.3853 96.5599 33.3051 96.1133 33.1 95.72C32.7794 94.9221 32.2586 94.2204 31.5877 93.6827C30.9167 93.1449 30.1185 92.7892 29.27 92.65C28.57 92.49 28.49 92.28 28.92 91.73C29.6214 90.7939 30.159 89.7458 30.51 88.63C32.14 83.82 32.77 78.8 33.56 73.83C34.0063 70.0338 35.1739 66.3579 37 63C38.4244 60.5284 40.3243 58.3634 42.59 56.63C43.42 56 43.45 56 43.59 57.07C43.69 57.78 43.71 58.51 43.76 59.23C44.0601 63.9544 43.9999 68.6948 43.58 73.41C43.2024 77.0649 43.1522 80.7462 43.43 84.41C43.8275 88.6636 44.5869 92.8755 45.7 97H59C58.8264 95.9175 58.328 94.9132 57.5708 94.1203C56.8136 93.3274 55.8334 92.7833 54.76 92.56C53.5066 92.3608 52.2252 92.429 51 92.76C50.4 92.9 50.15 92.76 50.1 92.11C49.6863 86.8159 50.0229 81.4899 51.1 76.29C52.4338 70.287 53.4552 64.2189 54.16 58.11C54.4224 55.643 55.1992 53.2584 56.44 51.11C57.63 48.99 58.67 46.79 59.84 44.66C60.3045 43.8855 60.5841 43.0143 60.657 42.1141C60.7298 41.2139 60.594 40.3091 60.26 39.47C59.99 38.76 59.73 38.04 59.4 37.36C58.4 35.41 57.4 33.48 56.48 31.51C55.99 30.51 56.1 30.39 57.19 30.36C58.82 30.36 58.82 30.36 58.85 28.72C58.85 28.5 58.85 28.28 58.85 28.06C58.85 27.37 58.59 26.99 57.85 27.06C57.35 27.06 56.85 27.06 56.33 27.06C55.64 27.06 55.44 26.77 55.61 26.06C55.9473 24.9058 56.611 23.8737 57.5211 23.0877C58.4312 22.3018 59.549 21.7956 60.74 21.63C62.9557 21.4379 65.1878 21.5829 67.36 22.06C67.6107 22.139 67.8823 22.1161 68.1162 21.9963C68.3502 21.8766 68.5275 21.6695 68.61 21.42C69.01 20.42 69.45 19.42 69.9 18.42C70.002 18.2426 70.0471 18.0381 70.0292 17.8343C70.0113 17.6304 69.9313 17.437 69.8 17.28C66.6 13.22 63.13 9.43 58.4 7C58.1715 6.90163 57.9712 6.7476 57.8175 6.55196C57.6638 6.35633 57.5615 6.12531 57.52 5.88C57.2523 4.45051 56.8264 3.05525 56.25 1.72C55.9795 1.00861 55.4845 0.404782 54.84 0V0Z" fill="black"/>
</svg>

<svg id="arrow-mobile" width="24" height="12" viewBox="0 0 24 12" fill="none" xmlns="http://www.w3.org/2000/svg">
<line y1="6" x2="18" y2="6" stroke="black" stroke-width="2"/>
<path d="M24 6L17.25 11.1962L17.25 0.803848L24 6Z" fill="black"/>
</svg>

<svg id="big-arrow-mobile" width="32" height="12" viewBox="0 0 32 12" fill="none" xmlns="http://www.w3.org/2000/svg">
<line y1="6" x2="26" y2="6" stroke="black" stroke-width="2"/>
<path d="M32 6L25.25 11.1962L25.25 0.803848L32 6Z" fill="black"/>
</svg>

<svg id="1" width="71" height="227" viewBox="0 0 71 227" fill="none" xmlns="http://www.w3.org/2000/svg">
<path d="M40.3722 227V39.4C40.1855 39.5867 38.0389 40.1467 33.9322 41.08C30.0122 42.0133 25.5322 42.9467 20.4922 43.88C15.4522 44.8133 10.9722 45.6533 7.05219 46.4C3.13219 47.1467 1.07885 47.52 0.892188 47.52V24.84C4.06552 24.0933 7.70552 23.0667 11.8122 21.76C16.1055 20.4533 20.3989 18.8667 24.6922 17C29.1722 15.1333 33.3722 12.8 37.2922 9.99999C41.3989 7.19999 44.8522 3.93332 47.6522 0.199983H70.3322V227H40.3722Z" fill="#F2F2F2"/>
</svg>

<svg id="2" width="113" height="229" viewBox="0 0 113 229" fill="none" xmlns="http://www.w3.org/2000/svg">
<path d="M0.624532 229V207.72L58.3045 117.84C62.5979 111.12 66.5179 104.867 70.0645 99.08C73.7979 93.2933 76.7845 87.2267 79.0245 80.88C81.4512 74.3467 82.6645 66.88 82.6645 58.48C82.6645 48.0267 80.9845 39.8133 77.6245 33.84C74.2645 27.8667 68.3845 24.88 59.9845 24.88C52.8912 24.88 47.3845 26.84 43.4645 30.76C39.5445 34.68 36.8379 39.8133 35.3445 46.16C33.8512 52.5067 33.1045 59.32 33.1045 66.6V74.16H3.14453V66.32C3.14453 52.6933 4.91787 41.0267 8.46453 31.32C12.1979 21.4267 18.0779 13.7733 26.1045 8.35999C34.3179 2.94666 45.1445 0.239991 58.5845 0.239991C76.8779 0.239991 90.5045 5.46666 99.4645 15.92C108.425 26.1867 112.905 40.4667 112.905 58.76C112.905 68.4667 111.691 76.96 109.265 84.24C107.025 91.52 104.038 98.3333 100.305 104.68C96.5712 111.027 92.4645 117.56 87.9845 124.28L35.9045 203.8H107.585V229H0.624532Z" fill="#F2F2F2"/>
</svg>

<svg id="3" width="112" height="232" viewBox="0 0 112 232" fill="none" xmlns="http://www.w3.org/2000/svg">
<path d="M55.9213 231.52C43.6013 231.52 33.3346 229.187 25.1213 224.52C16.9079 219.853 10.7479 213.133 6.64125 204.36C2.53458 195.587 0.481251 185.227 0.481251 173.28V165.72H30.1613C30.1613 166.467 30.1613 167.307 30.1613 168.24C30.1613 168.987 30.1613 169.827 30.1613 170.76C30.3479 177.48 31.0946 183.547 32.4013 188.96C33.8946 194.373 36.4146 198.667 39.9613 201.84C43.6946 205.013 49.0146 206.6 55.9213 206.6C63.2013 206.6 68.7079 204.92 72.4413 201.56C76.1746 198.013 78.6946 193.067 80.0013 186.72C81.3079 180.373 81.9613 173.093 81.9613 164.88C81.9613 152.933 79.7213 143.227 75.2413 135.76C70.9479 128.107 63.2946 123.907 52.2813 123.16C51.7213 122.973 50.9746 122.88 50.0413 122.88C49.2946 122.88 48.6413 122.88 48.0813 122.88V92.92C48.6413 92.92 49.2946 92.92 50.0413 92.92C50.7879 92.92 51.4413 92.92 52.0013 92.92C62.6413 92.5467 70.2946 89.7467 74.9613 84.52C79.6279 79.2933 81.9613 70.6133 81.9613 58.48C81.9613 48.2133 80.1879 40 76.6413 33.84C73.2813 27.68 66.4679 24.6 56.2013 24.6C45.9346 24.6 39.1213 28.0533 35.7613 34.96C32.4013 41.68 30.5346 50.36 30.1613 61C30.1613 61.7467 30.1613 62.5867 30.1613 63.52C30.1613 64.2667 30.1613 65.0133 30.1613 65.76H0.481251V58.2C0.481251 46.0667 2.53458 35.7067 6.64125 27.12C10.7479 18.5333 16.9079 11.9067 25.1213 7.23998C33.5213 2.57332 43.8813 0.239991 56.2013 0.239991C68.7079 0.239991 79.0679 2.57332 87.2813 7.23998C95.4946 11.9067 101.655 18.6267 105.761 27.4C109.868 35.9867 111.921 46.3467 111.921 58.48C111.921 72.1067 108.935 83.0267 102.961 91.24C97.1746 99.4533 89.3346 105.053 79.4413 108.04C86.3479 110.093 92.1346 113.64 96.8013 118.68C101.655 123.72 105.388 130.16 108.001 138C110.615 145.653 111.921 154.613 111.921 164.88C111.921 178.32 110.055 190.08 106.321 200.16C102.588 210.053 96.6146 217.8 88.4013 223.4C80.1879 228.813 69.3613 231.52 55.9213 231.52Z" fill="#F2F2F2"/>
</svg>

<svg id="4" width="121" height="227" viewBox="0 0 121 227" fill="none" xmlns="http://www.w3.org/2000/svg">
<path d="M66.3242 227V166.24H0.52422V134.88L59.6042 0.199983H94.8842V139.64H120.364V166.24H94.8842V227H66.3242ZM29.3642 139.64H66.3242V36.6L29.3642 139.64Z" fill="#F2F2F2"/>
</svg>

<svg id="benefit-icon" width="26" height="28" viewBox="0 0 26 28" fill="none" xmlns="http://www.w3.org/2000/svg">
<path d="M25.3438 0.767C25.2434 0.317 24.8647 0 24.4325 0C24.4306 0 24.4288 0 24.4269 0C19.4891 0.033 7.48156 0.916 2.63375 8.38C0.115624 12.258 -0.100938 17.293 1.98969 23.345C2.00562 23.392 2.03844 23.424 2.06 23.467C1.31281 25.44 1.02312 26.753 1.01562 26.79C0.906875 27.33 1.23031 27.862 1.73656 27.978C1.80219 27.993 1.86781 28 1.93344 28C2.36562 28 2.75469 27.679 2.84937 27.21C2.86906 27.108 5.25781 16.837 13.7028 10.832C14.1341 10.526 14.2503 9.905 13.9625 9.445C13.6747 8.985 13.0934 8.86 12.6622 9.168C7.87344 12.573 4.92406 17.176 3.18969 20.824C1.94844 16.246 2.27375 12.447 4.17594 9.519C7.91937 3.755 16.7984 2.365 22.1581 2.071C21.005 3.872 19.745 7.174 19.745 13C19.745 16.12 18.9153 18.522 17.2803 20.14C14.6591 22.731 10.4009 22.974 7.28656 22.724C6.76906 22.679 6.32 23.095 6.28062 23.646C6.24125 24.196 6.62844 24.676 7.14406 24.718C7.7675 24.769 8.43313 24.8 9.125 24.8C12.2956 24.8 15.9941 24.137 18.5544 21.606C20.5888 19.595 21.62 16.7 21.62 13.001C21.62 3.902 24.8356 1.905 24.8516 1.896C25.2416 1.687 25.4459 1.219 25.3438 0.767Z" fill="white"/>
</svg>

<svg id="release-form-icon" width="26" height="29" viewBox="0 0 26 29" fill="none" xmlns="http://www.w3.org/2000/svg">
<path d="M10.875 0C9.24375 0 7.975 1.35937 7.975 3.08125C7.975 4.80312 9.24375 6.1625 10.875 6.1625C12.5063 6.1625 13.775 4.80312 13.775 3.08125C13.775 1.35937 12.5063 0 10.875 0ZM10.875 1.17812C11.8719 1.17812 12.5969 2.02094 12.5969 3.08125C12.5969 4.07812 11.8084 4.98438 10.875 4.98438C9.87813 4.98438 9.15313 4.14156 9.15313 3.08125C9.15313 2.08437 9.9325 1.17812 10.875 1.17812ZM0 24.7406C0 25.9188 0.407813 26.9156 1.35938 27.7313C2.35625 28.5831 3.53438 28.5106 3.53438 28.5106H22.5656C23.345 28.5106 24.3781 28.13 25.1937 27.0606C26.0366 26.0638 25.9822 24.7044 25.9822 24.7044V7.48563C25.9822 7.05063 25.8734 6.8875 25.2391 6.8875C24.6047 6.8875 24.5503 7.15938 24.5503 7.47656V24.6953C24.5322 24.9944 24.4778 25.7828 23.8072 26.4172C23.0731 27.0425 22.3572 26.9609 22.3572 26.9609C22.3572 26.9609 4.23219 26.9609 3.32594 26.9338C2.98156 26.8703 2.41969 26.7434 1.87594 26.0275C1.36844 25.3025 1.46812 24.3962 1.46812 24.3962V7.1775C1.46812 6.71531 1.2325 6.54313 0.743125 6.54313C0.25375 6.54313 0 6.71531 0 7.12313V24.7406ZM16.3125 8.42813C15.225 8.66375 14.1375 8.80875 12.0531 10.7844C9.96875 12.7781 8.42813 12.6875 6.8875 12.5969C5.34688 12.5063 3.71563 11.0563 3.44375 10.6938C3.10844 10.3403 2.5375 10.5759 2.35625 10.8116C2.20219 11.0472 2.20219 11.455 2.465 11.8084C3.73375 12.9866 4.91188 13.8928 7.1775 14.0741C9.44312 14.2916 11.6181 13.2675 13.0681 11.8084C14.5181 10.3584 15.2431 10.0866 16.3306 9.90531C18.9587 9.48844 20.4994 10.5216 21.4056 11.1741C22.4025 12.2616 22.6744 11.9534 22.9462 11.6453C23.49 10.9294 22.7197 10.3766 21.8588 9.74219C20.0463 8.56406 18.3244 8.11094 16.3306 8.47344L16.3125 8.42813ZM7.25 15.5875C6.07188 15.5875 5.16562 16.5844 5.16562 17.8531C5.16562 19.1219 6.07188 20.1188 7.25 20.1188C8.42813 20.1188 9.33438 19.1219 9.33438 17.8531C9.33438 16.5844 8.42813 15.5875 7.25 15.5875ZM19.0312 16.3669C17.4906 16.3669 16.2219 17.7262 16.2219 19.3575C16.2219 20.9888 17.4906 22.3481 19.0312 22.3481C20.5719 22.3481 21.8406 20.9888 21.8406 19.3575C21.8406 17.7262 20.5719 16.3669 19.0312 16.3669ZM19.0312 17.8169C19.8288 17.8169 20.4813 18.5147 20.4813 19.3575C20.4813 20.2184 19.8288 20.8981 19.0312 20.8981C18.2337 20.8981 17.5812 20.2003 17.5812 19.3575C17.5812 18.4966 18.2337 17.8169 19.0312 17.8169Z" fill="white"/>
</svg>

<svg id="replace-food-icon" width="25" height="30" viewBox="0 0 25 30" fill="none" xmlns="http://www.w3.org/2000/svg">
<path fill-rule="evenodd" clip-rule="evenodd" d="M18.6173 0.0761497C18.991 -0.0786313 19.4211 0.00692445 19.7071 0.292922C20.6156 1.20142 21.8038 3.17065 22.7659 6.21082C23.7373 9.28039 24.5 13.5081 24.5 19C24.5 19.5523 24.0523 20 23.5 20H20V29C20 29.5523 19.5523 30 19 30C18.4477 30 18 29.5523 18 29V1.00003C18 0.595567 18.2436 0.230931 18.6173 0.0761497ZM20 18H22.4912C22.4053 13.1836 21.7051 9.48755 20.8591 6.81424C20.5807 5.93457 20.2885 5.1715 20 4.51895V18Z" fill="white"/>
<path fill-rule="evenodd" clip-rule="evenodd" d="M6 0C6.55228 0 7 0.447715 7 1V29C7 29.5523 6.55228 30 6 30C5.44772 30 5 29.5523 5 29V1C5 0.447715 5.44772 0 6 0Z" fill="white"/>
<path fill-rule="evenodd" clip-rule="evenodd" d="M1.5 0C2.05228 0 2.5 0.447715 2.5 1V6.5C2.5 7.05686 2.69203 7.81518 3.20088 8.41656C3.68001 8.98281 4.51446 9.5 5.99993 9.5C6.55221 9.5 6.99993 9.94771 6.99993 10.5C6.99993 11.0523 6.55221 11.5 5.99993 11.5C3.98547 11.5 2.56995 10.7672 1.6741 9.70844C0.807973 8.68482 0.5 7.44314 0.5 6.5V1C0.5 0.447715 0.947715 0 1.5 0Z" fill="white"/>
<path fill-rule="evenodd" clip-rule="evenodd" d="M10.5 0C9.94771 0 9.5 0.447715 9.5 1V6.5C9.5 7.05686 9.30797 7.81518 8.79912 8.41656C8.31999 8.98281 7.4854 9.5 5.99993 9.5C5.44765 9.5 5.00007 9.94771 5.00007 10.5C5.00007 11.0523 5.44765 11.5 5.99993 11.5C8.01439 11.5 9.43005 10.7672 10.3259 9.70844C11.192 8.68482 11.5 7.44314 11.5 6.5V1C11.5 0.447715 11.0523 0 10.5 0Z" fill="white"/>
</svg>

<svg id="fast-result-icon" width="26" height="31" viewBox="0 0 26 31" fill="none" xmlns="http://www.w3.org/2000/svg">
<path d="M5.53799 0C4.47504 0 4.47504 1.5831 5.53799 1.5831H12.1815V3.18731C5.37855 3.62002 0 9.41417 0 16.4854C0 20.4959 1.74325 24.1159 4.4963 26.5539C4.97463 26.976 5.03841 27.7254 4.60259 28.1897L3.07194 29.7412C2.32787 30.4272 3.43334 31.4931 4.10301 30.7438L6.10136 28.7069C6.45214 28.3692 6.97298 28.2847 7.4088 28.4958C9.12736 29.3397 11.0169 29.784 12.9341 29.795C14.8513 29.8059 16.7459 29.3833 18.4742 28.5591C18.8993 28.348 19.4308 28.4325 19.771 28.7702L21.7055 30.7438C22.3858 31.377 23.3638 30.4272 22.7472 29.7412L21.3016 28.2636C20.8552 27.8098 20.919 27.0605 21.4079 26.6277C22.8584 25.3585 24.0186 23.7959 24.8106 22.0447C25.6026 20.2936 26.0081 18.3944 25.9999 16.4748C25.9999 9.40362 20.5894 3.59891 13.7759 3.18731V1.5831H20.4194C21.4823 1.5831 21.4823 0 20.4194 0H5.53799ZM1.43499 16.4748C1.43499 9.94187 6.61158 4.65431 12.9999 4.65431C19.3777 4.65431 24.5543 9.94187 24.5543 16.4748C24.5543 23.0183 19.3777 28.3164 12.9999 28.3164C6.62221 28.3164 1.43499 23.0183 1.43499 16.4748ZM12.1921 8.37988C12.1921 7.28226 13.8503 7.28226 13.8503 8.37988V17.0131C13.8503 17.237 13.7607 17.4517 13.6012 17.6101C13.4418 17.7684 13.2255 17.8574 12.9999 17.8574C12.7875 17.8574 12.5836 17.7743 12.4324 17.6262C12.2812 17.478 12.1949 17.2767 12.1921 17.0658V8.37988ZM7.21746 10.9973C7.52475 10.9973 7.81945 10.8761 8.03673 10.6603C8.25402 10.4446 8.37608 10.152 8.37608 9.84688C8.37608 9.54178 8.25402 9.24918 8.03673 9.03344C7.81945 8.8177 7.52475 8.6965 7.21746 8.6965C6.93069 8.72386 6.66447 8.85633 6.47075 9.06805C6.27702 9.27977 6.16969 9.55556 6.16969 9.84161C6.16969 10.1277 6.27702 10.4034 6.47075 10.6152C6.66447 10.8269 6.93069 10.9593 7.21746 10.9867V10.9973ZM18.7718 10.9973C19.0791 10.9973 19.3738 10.8761 19.5911 10.6603C19.8083 10.4446 19.9304 10.152 19.9304 9.84688C19.9304 9.54178 19.8083 9.24918 19.5911 9.03344C19.3738 8.8177 19.0791 8.6965 18.7718 8.6965C18.485 8.72386 18.2188 8.85633 18.0251 9.06805C17.8313 9.27977 17.724 9.55556 17.724 9.84161C17.724 10.1277 17.8313 10.4034 18.0251 10.6152C18.2188 10.8269 18.485 10.9593 18.7718 10.9867V10.9973ZM8.37608 23.5882C8.37608 25.1185 6.05884 25.1185 6.05884 23.5882C6.05884 22.0579 8.37608 22.0579 8.37608 23.5882ZM12.9999 27.0288C13.1607 27.0441 13.3229 27.0259 13.4762 26.9754C13.6294 26.9248 13.7703 26.843 13.8899 26.7352C14.0094 26.6273 14.1049 26.4959 14.1703 26.3493C14.2356 26.2026 14.2694 26.044 14.2694 25.8837C14.2694 25.7233 14.2356 25.5648 14.1703 25.4181C14.1049 25.2715 14.0094 25.14 13.8899 25.0322C13.7703 24.9244 13.6294 24.8426 13.4762 24.792C13.3229 24.7414 13.1607 24.7232 12.9999 24.7386C12.7132 24.7659 12.4469 24.8984 12.2532 25.1101C12.0595 25.3219 11.9522 25.5976 11.9522 25.8837C11.9522 26.1697 12.0595 26.4455 12.2532 26.6572C12.4469 26.869 12.7132 27.0014 12.9999 27.0288ZM4.91085 16.6437C4.9263 16.8033 4.90797 16.9643 4.85704 17.1165C4.80611 17.2687 4.72371 17.4086 4.61511 17.5273C4.50651 17.646 4.37413 17.7408 4.22644 17.8057C4.07876 17.8706 3.91904 17.9041 3.75755 17.9041C3.59605 17.9041 3.43633 17.8706 3.28865 17.8057C3.14097 17.7408 3.00858 17.646 2.89998 17.5273C2.79138 17.4086 2.70898 17.2687 2.65805 17.1165C2.60712 16.9643 2.58879 16.8033 2.60424 16.6437C2.6318 16.3589 2.76522 16.0946 2.97845 15.9023C3.19169 15.7099 3.46945 15.6033 3.75755 15.6033C4.04564 15.6033 4.3234 15.7099 4.53664 15.9023C4.74987 16.0946 4.88329 16.3589 4.91085 16.6437ZM22.237 17.794C22.3978 17.8094 22.56 17.7912 22.7132 17.7406C22.8665 17.6901 23.0074 17.6082 23.127 17.5004C23.2465 17.3926 23.342 17.2611 23.4074 17.1145C23.4727 16.9679 23.5065 16.8093 23.5065 16.6489C23.5065 16.4886 23.4727 16.33 23.4074 16.1834C23.342 16.0367 23.2465 15.9053 23.127 15.7975C23.0074 15.6896 22.8665 15.6078 22.7132 15.5573C22.56 15.5067 22.3978 15.4885 22.237 15.5038C21.9502 15.5312 21.684 15.6637 21.4903 15.8754C21.2966 16.0871 21.1892 16.3629 21.1892 16.6489C21.1892 16.935 21.2966 17.2108 21.4903 17.4225C21.684 17.6342 21.9502 17.7667 22.237 17.794ZM19.9304 23.5987C19.9304 25.1185 17.6132 25.1185 17.6132 23.5882C17.6132 22.0579 19.9304 22.0579 19.9304 23.5882V23.5987Z" fill="white"/>
</svg>

<svg id="plus-icon-mobile" width="30" height="30" viewBox="0 0 30 30" fill="none" xmlns="http://www.w3.org/2000/svg">
<line x1="15" x2="15" y2="30" stroke="#D3D3D3" stroke-width="2"/>
<line x1="30" y1="15" y2="15" stroke="#D3D3D3" stroke-width="2"/>
</svg>

<svg id="plus-icon-tablet" width="60" height="60" viewBox="0 0 60 60" fill="none" xmlns="http://www.w3.org/2000/svg">
<line x1="31" x2="31" y2="60" stroke="#D3D3D3" stroke-width="2"/>
<line x1="60" y1="31" y2="31" stroke="#D3D3D3" stroke-width="2"/>
</svg>

<svg id="gift-icon" width="78" height="80" viewBox="0 0 78 80" fill="none" xmlns="http://www.w3.org/2000/svg">
<path d="M64.0156 34.7127H14.031C12.2766 34.7127 10.8494 33.2951 10.8494 31.5524V22.0842C10.8494 20.3415 12.2766 18.9233 14.031 18.9233H64.0149C65.7687 18.9233 67.1953 20.3415 67.1953 22.0842V31.553C67.1959 33.2951 65.7693 34.7127 64.0156 34.7127ZM14.031 21.3455C13.6276 21.3455 13.2869 21.684 13.2869 22.0842V31.553C13.2869 31.9599 13.6208 32.2912 14.031 32.2912H64.0149C64.4244 32.2912 64.7578 31.9599 64.7578 31.553V22.0842C64.7578 21.6834 64.4171 21.3455 64.0149 21.3455H14.031Z" fill="white"/>
<path d="M57.0447 67.1488H20.999C17.6218 67.1488 14.8741 64.4191 14.8741 61.0626V33.5016C14.8741 32.8331 15.4201 32.2905 16.0929 32.2905C16.7656 32.2905 17.3116 32.8331 17.3116 33.5016V61.0626C17.3116 63.0833 18.9661 64.7267 20.999 64.7267H57.0447C59.077 64.7267 60.7308 63.0833 60.7308 61.0626V33.5016C60.7308 32.8331 61.2768 32.2905 61.9496 32.2905C62.6223 32.2905 63.1683 32.8331 63.1683 33.5016V61.0626C63.1683 64.4191 60.4213 67.1488 57.0447 67.1488Z" fill="white"/>
<path d="M39.0225 67.1488C38.3498 67.1488 37.8038 66.6069 37.8038 65.9378V33.5016C37.8038 32.8331 38.3498 32.2905 39.0225 32.2905C39.6953 32.2905 40.2413 32.8331 40.2413 33.5016V65.9372C40.2413 66.6069 39.6959 67.1488 39.0225 67.1488Z" fill="white"/>
<path d="M23.8113 21.3414C19.9966 19.2874 18.5731 14.5327 20.6383 10.7415C22.7022 6.95201 27.4864 5.53687 31.303 7.58721C37.117 10.7166 40.2565 19.4472 40.3869 19.8172L38.0877 20.6208C38.0585 20.5384 35.1256 12.3994 30.1433 9.71749C27.5078 8.30175 24.2062 9.27908 22.7821 11.8944C21.3567 14.5121 22.339 17.7941 24.9734 19.2117L23.8113 21.3414Z" fill="white"/>
<path d="M54.2313 21.3413L53.071 19.2111C54.3477 18.5238 55.2782 17.3848 55.6926 16.0035C56.1063 14.6217 55.9534 13.1624 55.2617 11.895C54.5719 10.6264 53.4263 9.70233 52.0363 9.29117C50.6457 8.88001 49.1783 9.0314 47.9023 9.71747C42.9201 12.3988 39.9871 20.5378 39.9579 20.6202L37.6587 19.8166C37.7891 19.4466 40.928 10.716 46.7421 7.58719C48.5897 6.5929 50.7182 6.3737 52.7316 6.96955C54.7468 7.56479 56.4061 8.90484 57.4061 10.7414C58.4073 12.5774 58.6285 14.6913 58.0289 16.6939C57.4287 18.6958 56.0801 20.3458 54.2313 21.3413Z" fill="white"/>
<path d="M61.9496 50.9314H16.0929C15.4201 50.9314 14.8741 50.3889 14.8741 49.7204C14.8741 49.0518 15.4201 48.5093 16.0929 48.5093H61.9496C62.6223 48.5093 63.1683 49.0518 63.1683 49.7204C63.1683 50.3889 62.6229 50.9314 61.9496 50.9314Z" fill="white"/>
</svg>

<svg id="tick-icon-mobile" width="26" height="26" viewBox="0 0 26 26" fill="none" xmlns="http://www.w3.org/2000/svg">
<path d="M11 17.718L5.3 11.2695L4.25 12.4574L11 20.0938L22.25 7.36648L21.2 6.09375L11 17.718Z" fill="#68B738"/>
</svg>

<svg id="tick-icon-tablet" width="26" height="26" viewBox="0 0 26 26" fill="none" xmlns="http://www.w3.org/2000/svg">
<path d="M10 19.499L2.4 10.901L1 12.4848L10 22.6667L25 5.69697L23.6 4L10 19.499Z" fill="#68B738"/>
</svg>

<svg id="email-icon" width="18" height="14" viewBox="0 0 18 14" fill="none" xmlns="http://www.w3.org/2000/svg">
<path d="M0.5 5.5V13.5H17.5V5.5M0.5 0.5H17.5V2.5L9 8.5L0.5 2.5V0.5Z" stroke="black" stroke-linecap="round" stroke-linejoin="round"/>
</svg>

<svg id="phone-icon" width="16" height="16" viewBox="0 0 16 16" fill="none" xmlns="http://www.w3.org/2000/svg">
<path d="M7 8H15.5M15.5 8L13 5.5M15.5 8L13 10.5M5.5 0.5V5.5H2.5V10.5H5.5V15.5H3C1.5 15.5 0.5 14.5 0.5 13V3C0.5 1.5 1.5 0.5 3 0.5H5.5Z" stroke="black" stroke-linecap="round" stroke-linejoin="round"/>
</svg>




</svg>
