<svg xmlns="http://www.w3.org/2000/svg"><style>:root svg:not(:target){display:none}</style><svg fill="none" id="arrow-mobile" viewBox="0 0 24 12"><path stroke="#000" stroke-width="2" d="M0 6h18"></path><path d="m24 6-6.75 5.196V.804L24 6Z" fill="#000"></path></svg><svg fill="none" id="benefit-icon" viewBox="0 0 26 28"><path d="M25.344.767c-.1-.45-.48-.767-.912-.767h-.005C19.489.033 7.482.916 2.634 8.38.116 12.258-.101 17.293 1.99 23.345c.016.047.048.079.07.122-.747 1.973-1.037 3.286-1.044 3.323-.11.54.214 1.072.72 1.188a.88.88 0 0 0 .197.022c.433 0 .822-.321.916-.79.02-.102 2.409-10.373 10.854-16.378.431-.306.547-.927.26-1.387-.288-.46-.87-.585-1.3-.277-4.79 3.405-7.739 8.008-9.473 11.656-1.242-4.578-.916-8.377.986-11.305 3.743-5.764 12.622-7.154 17.982-7.448C21.005 3.872 19.745 7.174 19.745 13c0 3.12-.83 5.522-2.465 7.14-2.62 2.591-6.88 2.834-9.993 2.584-.518-.045-.967.371-1.006.922-.04.55.347 1.03.863 1.072.623.051 1.29.082 1.981.082 3.17 0 6.87-.663 9.43-3.194 2.034-2.011 3.065-4.906 3.065-8.605 0-9.099 3.216-11.096 3.232-11.105.39-.209.594-.677.492-1.129Z" fill="#fff"></path></svg><svg fill="none" id="big-arrow-mobile" viewBox="0 0 32 12"><path stroke="#000" stroke-width="2" d="M0 6h26"></path><path d="m32 6-6.75 5.196V.804L32 6Z" fill="#000"></path></svg><svg fill="none" id="burger-menu" viewBox="0 0 24 18"><path stroke="#000" stroke-width="1.5" d="M0 1.25h24M0 9.25h24M0 17.25h24"></path></svg><svg fill="none" id="close" viewBox="0 0 20 20"><path transform="scale(.97098 1.0282) rotate(-45 24.51 7.237)" stroke="#000" stroke-width="1.5" d="M0-.75h24.758"></path><path transform="matrix(.68659 .72705 -.68659 .72705 1 2)" stroke="#000" stroke-width="1.5" d="M0-.75h24.758"></path></svg><svg fill="none" id="email-icon" viewBox="0 0 18 14"><path d="M.5 5.5v8h17v-8M.5.5h17v2L9 8.5l-8.5-6v-2Z" stroke="#000" stroke-linecap="round" stroke-linejoin="round"></path></svg><svg fill="none" id="fast-result-icon" viewBox="0 0 26 31"><path d="M5.538 0c-1.063 0-1.063 1.583 0 1.583h6.643v1.604C5.38 3.62 0 9.414 0 16.485c0 4.01 1.743 7.63 4.496 10.069.479.422.542 1.171.107 1.636L3.072 29.74c-.744.686.361 1.752 1.031 1.003l1.998-2.037c.351-.338.872-.422 1.308-.211a12.702 12.702 0 0 0 11.065.063 1.14 1.14 0 0 1 1.297.211l1.934 1.974c.68.633 1.659-.317 1.042-1.003l-1.445-1.477c-.447-.454-.383-1.203.106-1.636a13.462 13.462 0 0 0 3.403-4.583A13.376 13.376 0 0 0 26 16.475c0-7.071-5.41-12.876-12.224-13.288V1.583h6.643c1.063 0 1.063-1.583 0-1.583H5.538ZM1.435 16.475c0-6.533 5.177-11.82 11.565-11.82 6.378 0 11.554 5.287 11.554 11.82 0 6.543-5.176 11.841-11.554 11.841S1.435 23.018 1.435 16.475ZM12.192 8.38c0-1.098 1.658-1.098 1.658 0v8.633c0 .224-.09.439-.249.597a.853.853 0 0 1-.601.247.811.811 0 0 1-.568-.23.8.8 0 0 1-.24-.561V8.38Zm-4.975 2.617c.308 0 .602-.12.82-.337a1.146 1.146 0 0 0 0-1.627 1.163 1.163 0 0 0-.82-.336c-.286.027-.553.16-.746.371a1.146 1.146 0 0 0 0 1.547c.193.212.46.344.746.372v.01Zm11.555 0c.307 0 .602-.12.82-.337a1.146 1.146 0 0 0 0-1.627 1.163 1.163 0 0 0-.82-.336c-.287.027-.553.16-.747.371a1.145 1.145 0 0 0 0 1.547c.194.212.46.344.747.372v.01ZM8.376 23.588c0 1.53-2.317 1.53-2.317 0s2.317-1.53 2.317 0ZM13 27.028a1.169 1.169 0 0 0 .89-.293 1.153 1.153 0 0 0 .38-.851 1.145 1.145 0 0 0-.38-.852 1.162 1.162 0 0 0-1.637.078 1.146 1.146 0 0 0 0 1.547c.194.212.46.344.747.372ZM4.91 16.645a1.143 1.143 0 0 1-.295.883 1.158 1.158 0 0 1-.857.377 1.166 1.166 0 0 1-.858-.377 1.148 1.148 0 0 1-.296-.883c.028-.285.161-.55.374-.742a1.163 1.163 0 0 1 1.559 0c.213.193.346.457.374.742Zm17.327 1.15a1.165 1.165 0 0 0 1.17-.68 1.144 1.144 0 0 0-.694-1.557 1.166 1.166 0 0 0-1.223.318 1.146 1.146 0 0 0 0 1.547c.194.212.46.345.747.372Zm-2.307 5.805c0 1.52-2.317 1.52-2.317-.01 0-1.531 2.317-1.531 2.317 0v.01Z" fill="#fff"></path></svg><svg fill="none" id="gift-icon" viewBox="0 0 78 80"><path d="M64.016 34.713H14.03c-1.754 0-3.182-1.418-3.182-3.16v-9.469c0-1.742 1.428-3.16 3.182-3.16h49.984c1.754 0 3.18 1.418 3.18 3.16v9.469c0 1.742-1.426 3.16-3.18 3.16ZM14.03 21.346a.751.751 0 0 0-.744.738v9.469c0 .407.334.738.744.738h49.984c.41 0 .743-.331.743-.738v-9.469a.75.75 0 0 0-.743-.738H14.03Z" fill="#fff"></path><path d="M57.045 67.149H20.999c-3.377 0-6.125-2.73-6.125-6.086V33.502c0-.669.546-1.212 1.219-1.212s1.219.543 1.219 1.212v27.56c0 2.021 1.654 3.665 3.687 3.665h36.046c2.032 0 3.686-1.644 3.686-3.664V33.502c0-.669.546-1.212 1.219-1.212.672 0 1.218.543 1.218 1.212v27.56c0 3.357-2.747 6.087-6.123 6.087Z" fill="#fff"></path><path d="M39.023 67.149a1.215 1.215 0 0 1-1.22-1.211V33.502c0-.669.547-1.212 1.22-1.212.672 0 1.218.543 1.218 1.212v32.435c0 .67-.545 1.212-1.218 1.212ZM23.811 21.341c-3.814-2.054-5.238-6.808-3.173-10.6 2.064-3.789 6.848-5.204 10.665-3.154 5.814 3.13 8.954 11.86 9.084 12.23l-2.3.804c-.029-.083-2.961-8.222-7.944-10.904-2.635-1.415-5.937-.438-7.36 2.177-1.426 2.618-.444 5.9 2.19 7.318l-1.162 2.13Z" fill="#fff"></path><path d="m54.231 21.341-1.16-2.13a5.376 5.376 0 0 0 2.622-3.207 5.327 5.327 0 0 0-.431-4.109 5.382 5.382 0 0 0-3.226-2.604 5.426 5.426 0 0 0-4.134.426c-4.982 2.682-7.915 10.82-7.944 10.903l-2.3-.803c.131-.37 3.27-9.101 9.084-12.23a7.859 7.859 0 0 1 5.99-.617 7.8 7.8 0 0 1 4.674 3.771 7.72 7.72 0 0 1 .623 5.953 7.788 7.788 0 0 1-3.798 4.647ZM61.95 50.931H16.093a1.215 1.215 0 0 1-1.219-1.21c0-.67.546-1.212 1.219-1.212H61.95c.672 0 1.218.543 1.218 1.211 0 .669-.545 1.211-1.218 1.211Z" fill="#fff"></path></svg><svg fill="currentColor" id="htmlacademy-logo-letter" viewBox="0 0 112 15"><path d="M10.111.536V12H8.56V6.784H2.375V12H.823V.536h1.552v5.112H8.56V.536h1.552ZM20.794 1.84h-3.712V12h-1.544V1.84h-3.72V.536h8.976V1.84ZM34.424.536V12h-1.36V3.576c0-.112.002-.232.007-.36l.032-.392-3.936 7.168c-.122.24-.31.36-.56.36h-.224c-.25 0-.437-.12-.56-.36l-4.016-7.2c.032.283.048.544.048.784V12h-1.36V.536h1.144c.139 0 .246.013.32.04.075.027.147.101.216.224l3.96 7.056c.064.128.126.261.184.4.064.139.123.28.176.424.054-.144.11-.285.168-.424.059-.144.123-.28.192-.408L32.743.8c.064-.123.134-.197.208-.224.08-.027.19-.04.328-.04h1.144Zm9.435 10.16V12h-6.504V.536h1.544v10.16h4.96Zm10.88-2.952-1.8-4.664a9.548 9.548 0 0 1-.336-1.072 8.723 8.723 0 0 1-.343 1.08l-1.8 4.656h4.28ZM57.972 12h-1.2a.516.516 0 0 1-.337-.104.64.64 0 0 1-.192-.264l-1.072-2.768h-5.143l-1.072 2.768a.562.562 0 0 1-.184.256.511.511 0 0 1-.337.112h-1.2L51.82.536h1.569L57.972 12Zm6.593-6.664a.638.638 0 0 1-.128.136.288.288 0 0 1-.176.048.487.487 0 0 1-.264-.096 3.655 3.655 0 0 0-.36-.224 2.548 2.548 0 0 0-.52-.216 2.347 2.347 0 0 0-.752-.104c-.4 0-.752.072-1.056.216a2.03 2.03 0 0 0-.768.608c-.203.267-.357.59-.464.968a4.92 4.92 0 0 0-.152 1.272c0 .49.056.928.168 1.312.112.379.27.699.472.96.208.256.456.453.744.592.293.133.621.2.984.2.346 0 .632-.04.856-.12.224-.085.408-.179.552-.28a4.76 4.76 0 0 0 .368-.272.466.466 0 0 1 .296-.128c.117 0 .208.045.272.136l.4.52a2.838 2.838 0 0 1-.6.56 3.812 3.812 0 0 1-.728.392 4.019 4.019 0 0 1-.808.224c-.283.048-.57.072-.864.072-.507 0-.979-.093-1.416-.28a3.253 3.253 0 0 1-1.128-.808 3.846 3.846 0 0 1-.752-1.312c-.181-.517-.272-1.107-.272-1.768 0-.603.082-1.16.248-1.672a3.83 3.83 0 0 1 .736-1.32 3.368 3.368 0 0 1 1.192-.872c.474-.208 1.018-.312 1.632-.312.57 0 1.072.093 1.504.28.437.181.824.44 1.16.776l-.376.512Zm6.392 3.016c-.655.021-1.215.075-1.68.16-.458.08-.834.187-1.127.32-.288.133-.5.29-.633.472a1.03 1.03 0 0 0-.191.608c0 .213.034.397.104.552.069.155.162.283.28.384.122.096.264.168.424.216.165.043.34.064.528.064.25 0 .48-.024.688-.072.208-.053.402-.128.584-.224.186-.096.362-.21.528-.344.17-.133.335-.285.495-.456v-1.68Zm-4.6-3.312c.448-.432.931-.755 1.448-.968a4.47 4.47 0 0 1 1.72-.32c.454 0 .856.075 1.209.224.352.15.648.357.888.624s.42.59.543.968c.123.379.184.795.184 1.248V12h-.632a.653.653 0 0 1-.32-.064c-.074-.048-.133-.139-.175-.272l-.16-.768a8.67 8.67 0 0 1-.624.528c-.203.15-.416.277-.64.384a3.446 3.446 0 0 1-.72.232c-.251.059-.531.088-.84.088-.315 0-.611-.043-.888-.128a2.147 2.147 0 0 1-.728-.4 1.936 1.936 0 0 1-.489-.664 2.41 2.41 0 0 1-.175-.96c0-.32.088-.627.264-.92.175-.299.46-.563.856-.792.394-.23.909-.416 1.543-.56.635-.15 1.414-.235 2.337-.256v-.632c0-.63-.136-1.104-.409-1.424-.272-.325-.669-.488-1.192-.488-.352 0-.647.045-.888.136a3.15 3.15 0 0 0-.615.296c-.171.107-.32.205-.448.296a.641.641 0 0 1-.369.128.425.425 0 0 1-.248-.072.756.756 0 0 1-.175-.192l-.257-.456Zm13.442.784c-.267-.357-.555-.605-.864-.744a2.435 2.435 0 0 0-1.04-.216c-.752 0-1.331.27-1.736.808-.406.539-.608 1.307-.608 2.304 0 .528.045.981.136 1.36.09.373.224.683.4.928.176.24.392.416.648.528.256.112.546.168.872.168.469 0 .877-.107 1.224-.32.352-.213.674-.515.968-.904V5.824ZM81.223.216V12h-.848c-.203 0-.331-.099-.384-.296l-.128-.984a4.41 4.41 0 0 1-1.184 1.008c-.443.256-.955.384-1.536.384-.464 0-.886-.088-1.264-.264a2.659 2.659 0 0 1-.968-.792c-.267-.347-.472-.779-.616-1.296-.144-.517-.216-1.112-.216-1.784 0-.597.08-1.152.24-1.664.16-.517.389-.965.688-1.344a3.163 3.163 0 0 1 1.096-.888 3.246 3.246 0 0 1 1.472-.328c.496 0 .92.085 1.272.256.357.165.674.397.952.696V.216h1.424Zm7.673 6.848c0-.33-.048-.632-.144-.904a1.917 1.917 0 0 0-.408-.712 1.722 1.722 0 0 0-.648-.464 2.155 2.155 0 0 0-.872-.168c-.683 0-1.224.2-1.624.6-.395.395-.64.944-.736 1.648h4.432Zm1.152 3.8c-.176.213-.387.4-.632.56a4.03 4.03 0 0 1-.792.384 4.676 4.676 0 0 1-.864.224c-.299.053-.595.08-.888.08-.56 0-1.078-.093-1.552-.28A3.513 3.513 0 0 1 84.096 11a3.89 3.89 0 0 1-.8-1.36c-.192-.539-.288-1.157-.288-1.856 0-.565.085-1.093.256-1.584a3.74 3.74 0 0 1 .752-1.272 3.374 3.374 0 0 1 1.192-.848 3.87 3.87 0 0 1 1.584-.312c.485 0 .933.083 1.344.248.416.16.773.395 1.072.704.304.304.541.683.712 1.136.17.448.256.96.256 1.536 0 .224-.024.373-.072.448-.048.075-.139.112-.272.112h-5.416c.016.512.085.957.208 1.336.128.379.304.696.528.952.224.25.49.44.8.568a2.8 2.8 0 0 0 1.04.184c.357 0 .664-.04.92-.12a4.608 4.608 0 0 0 1.136-.536c.128-.085.237-.128.328-.128.117 0 .208.045.272.136l.4.52ZM91.925 12V3.896h.856c.203 0 .328.099.376.296l.104.832c.299-.368.635-.67 1.008-.904a2.383 2.383 0 0 1 1.296-.352c.544 0 .984.152 1.32.456.341.304.587.715.736 1.232.117-.293.267-.547.448-.76a2.647 2.647 0 0 1 1.352-.832c.261-.064.525-.096.792-.096.427 0 .805.07 1.136.208.336.133.619.33.848.592.235.261.413.584.536.968.123.379.184.813.184 1.304V12h-1.432V6.84c0-.635-.139-1.115-.416-1.44-.277-.33-.677-.496-1.2-.496-.235 0-.459.043-.672.128-.208.08-.392.2-.552.36-.16.16-.288.363-.384.608-.09.24-.136.52-.136.84V12h-1.432V6.84c0-.65-.13-1.136-.392-1.456-.261-.32-.643-.48-1.144-.48a1.77 1.77 0 0 0-.976.288 3.171 3.171 0 0 0-.824.768V12h-1.432Zm19.945-8.104-4.52 10.496a.715.715 0 0 1-.184.256c-.069.064-.179.096-.328.096h-1.056l1.48-3.216-3.344-7.632h1.232c.123 0 .219.032.288.096a.447.447 0 0 1 .152.2l2.168 5.104c.085.224.157.459.216.704.075-.25.155-.488.24-.712l2.104-5.096a.438.438 0 0 1 .16-.208.436.436 0 0 1 .264-.088h1.128Z"></path></svg><svg fill="none" id="htmlacademy-logo" viewBox="0 0 27 35"><path d="M13.643.516 13.5.5 0 1.907v24.606L13.5 34.5 27 26.513V1.907L13.643.516Zm11.591 25L13.5 32.456 1.766 25.515V15.43l11.685 6.916.02 1.253-8.017-4.743-.011 1.225 8.046 4.809.02 1.286-8.045-4.758-.01 1.226L13.5 27.45l8.124-4.833V17.41l3.62-2.15-.01 10.256Zm0-11.564-3.22 1.88-1.482.875-7.065-4.187-.011 1.225 6.04 3.573-.053.031-.13.076-.86.492-4.986-2.948-.011 1.225 3.936 2.328-.933.61-.021.012-2.971-1.742-.011 1.225 1.947 1.135-1.988 1.186-11.618-6.872 11.638-6.958 11.8 6.834Zm0-1.225L13.44 5.81 1.766 12.72V3.49L13.5 2.264 25.234 3.49v9.237Z" fill="#666"></path></svg><svg fill="none" id="logo-footer-mobile" viewBox="0 0 129 24"><path d="M2.103 22.051A9.498 9.498 0 0 1 .5 16.308V7.795a9.63 9.63 0 0 1 1.502-5.846C3.104.615 4.807 0 7.311 0s4.106.615 5.108 1.744a7.487 7.487 0 0 1 1.502 5.025v2.052H9.013V6.46a5.157 5.157 0 0 0-.3-2.05 1.463 1.463 0 0 0-.579-.63 1.415 1.415 0 0 0-.823-.191c-.701 0-1.202.205-1.403.718a6.774 6.774 0 0 0-.3 2.256v10.974a4.334 4.334 0 0 0 .4 2.154c.2.513.702.718 1.403.718.7 0 1.102-.205 1.302-.718.228-.693.33-1.423.3-2.154v-2.461h4.908v2.051a7.98 7.98 0 0 1-1.502 5.128c-1.002 1.231-2.705 1.847-5.108 1.847-2.404-.103-4.207-.718-5.208-2.052ZM19.83.308h5.71l4.206 23.384h-4.607l-.802-4.923h-3.305l-.801 4.923h-4.708L19.83.308Zm4.107 15.384-1.202-9.128-1.202 9.128h2.404ZM33.251 4.205h-3.405V.308h11.918v3.794H38.36v19.59h-5.108V4.205ZM50.879.308h8.814v2.461h-5.71v7.692h4.608v2.36h-4.607v8.615h5.709v2.359h-8.914V.308h.1ZM62.297.308H64.5l6.51 15.487V.308h2.604v23.384h-2.003l-6.61-16v16h-2.704V.308ZM76.619.308h8.814v2.461h-5.71v7.692h4.608v2.36h-4.607v8.615h5.709v2.359h-8.814V.308ZM88.037.308h4.607a7.873 7.873 0 0 1 5.108 1.436c1.102.923 1.602 2.564 1.602 4.717 0 2.975-.901 4.821-2.804 5.436l3.205 11.693H96.65l-3.005-10.975h-2.503V23.59h-3.205V.308h.1Zm4.407 10.05a4.302 4.302 0 0 0 2.904-.82c.601-.512.902-1.538.902-3.077a6.772 6.772 0 0 0-.3-2.256 2.583 2.583 0 0 0-1.103-1.23 4.473 4.473 0 0 0-2.203-.411h-1.402v7.692h1.202v.103ZM103.361 21.949a10.566 10.566 0 0 1-1.402-5.95V8.206c-.025-1.486.143-2.97.5-4.41a5.204 5.204 0 0 1 1.903-2.667 6.421 6.421 0 0 1 3.706-.923c2.103 0 3.606.513 4.507 1.641a7.982 7.982 0 0 1 1.402 5.128v.82h-3.004v-.717a15.503 15.503 0 0 0-.201-2.564 2.056 2.056 0 0 0-.801-1.334 3.04 3.04 0 0 0-1.903-.512 2.955 2.955 0 0 0-2.003.615 2.349 2.349 0 0 0-.801 1.641 19.734 19.734 0 0 0-.201 2.77v8.717a9.527 9.527 0 0 0 .601 3.898c.401.82 1.202 1.128 2.404 1.128.475.06.956-.024 1.384-.243a2.45 2.45 0 0 0 1.02-.988 9.635 9.635 0 0 0 .701-4.102V14.46h-2.905v-2.359h5.809v11.59h-2.003l-.3-2.666a4.18 4.18 0 0 1-1.554 2.21 4.016 4.016 0 0 1-2.553.764 4.907 4.907 0 0 1-2.406-.47 5.037 5.037 0 0 1-1.9-1.581ZM120.487 15.487 115.58.41h3.004l3.506 11.282L125.495.41h3.005l-4.908 15.077v8.205h-3.004v-8.205h-.101Z" fill="#111"></path></svg><svg fill="none" id="logo-footer-tablet" viewBox="0 0 143 27"><g clip-path="url(#logo-footer-tablet_0)" fill="#111"><path d="M1.788 24.438A10.149 10.149 0 0 1 0 18.188V8.924a10.282 10.282 0 0 1 1.676-6.362c1.23-1.45 3.129-2.12 5.922-2.12 2.794 0 4.581.67 5.699 1.897a8.008 8.008 0 0 1 1.676 5.469v2.232H9.498V7.473c.044-.76-.07-1.52-.335-2.232a1.608 1.608 0 0 0-1.565-.893c-.782 0-1.34.223-1.564.781a7.203 7.203 0 0 0-.335 2.456v11.942a4.617 4.617 0 0 0 .447 2.344c.223.558.782.782 1.564.782s1.229-.224 1.452-.782a6.511 6.511 0 0 0 .336-2.344V16.85h5.475v2.232a8.532 8.532 0 0 1-1.676 5.58c-1.118 1.34-3.017 2.01-5.699 2.01-2.682-.112-4.693-.782-5.81-2.233ZM21.565.776h6.37l4.692 25.448h-5.14l-.893-5.357h-3.688l-.894 5.357h-5.251L21.565.776Zm4.582 16.742-1.341-9.933-1.341 9.933h2.682ZM36.538 5.018H32.74V.776h13.297v4.13h-3.8v21.318h-5.698V5.018ZM56.204.776h9.833v2.68h-6.37v8.37h5.14v2.567h-5.14v9.376h6.37v2.567h-9.945V.776h.112ZM68.942.776H71.4l7.263 16.854V.776h2.905v25.448h-2.234L71.959 8.813v17.411h-3.017V.776ZM84.92.776h9.833v2.68h-6.369v8.37h5.14v2.567h-5.14v9.376h6.37v2.567H84.92V.776ZM97.659.776h5.139a8.947 8.947 0 0 1 5.699 1.563c1.229 1.004 1.788 2.79 1.788 5.134 0 3.237-1.006 5.246-3.129 5.916l3.576 12.724h-3.464l-3.352-11.943h-2.794v11.943h-3.575V.776h.112Zm4.916 10.938a4.885 4.885 0 0 0 3.24-.893c.671-.558 1.006-1.674 1.006-3.348a7.196 7.196 0 0 0-.335-2.456 2.842 2.842 0 0 0-1.229-1.339 5.104 5.104 0 0 0-2.459-.446h-1.564v8.37h1.341v.112ZM114.754 24.327a11.281 11.281 0 0 1-1.564-6.474V9.371c-.028-1.618.16-3.232.559-4.8a5.671 5.671 0 0 1 2.123-2.902 7.302 7.302 0 0 1 4.134-1.004c2.347 0 4.023.558 5.028 1.786a8.536 8.536 0 0 1 1.565 5.58v.893h-3.353v-.781a16.405 16.405 0 0 0-.223-2.79 2.232 2.232 0 0 0-.894-1.451 3.455 3.455 0 0 0-2.123-.558 3.356 3.356 0 0 0-2.235.67 2.523 2.523 0 0 0-.894 1.785 20.819 20.819 0 0 0-.223 3.014V18.3a10.133 10.133 0 0 0 .67 4.241c.447.893 1.341 1.228 2.682 1.228a2.707 2.707 0 0 0 2.682-1.34 10.27 10.27 0 0 0 .782-4.464v-1.786h-3.241v-2.567h6.481v12.612h-2.234l-.336-2.902a4.555 4.555 0 0 1-4.581 3.237 5.594 5.594 0 0 1-4.805-2.232ZM133.861 17.295 128.386.888h3.352l3.911 12.277L139.448.888h3.352l-5.475 16.407v8.929h-3.352v-8.93h-.112Z"></path></g><defs><clipPath id="logo-footer-tablet_0"><path fill="#fff" transform="translate(0 .441)" d="M0 0h142.8v26.118H0z"></path></clipPath></defs></svg><svg fill="none" id="phone-icon" viewBox="0 0 16 16"><path d="M7 8h8.5m0 0L13 5.5M15.5 8 13 10.5M5.5.5v5h-3v5h3v5H3c-1.5 0-2.5-1-2.5-2.5V3C.5 1.5 1.5.5 3 .5h2.5Z" stroke="#000" stroke-linecap="round" stroke-linejoin="round"></path></svg><svg fill="none" id="plus-icon-mobile" viewBox="0 0 30 30"><path stroke="#D3D3D3" stroke-width="2" d="M15 0v30M30 15H0"></path></svg><svg fill="none" id="plus-icon-tablet" viewBox="0 0 60 60"><path stroke="#D3D3D3" stroke-width="2" d="M31 0v60M60 31H0"></path></svg><svg fill="none" id="pro-icon-desktop" viewBox="0 0 134 56"><path d="M123.118 5.757a15.207 15.207 0 0 1 4.5-4.6c1-.7 1.6-.7 2.2.6.8 1.9 1.5 3.9.9 6a2.288 2.288 0 0 0 .4 2.1c.6.8 1.1 1.6 1.6 2.3a6.266 6.266 0 0 1 .9 6.2 5.437 5.437 0 0 0-.2 3.1c.2.99.2 2.01 0 3a3.752 3.752 0 0 1-2.7 3.2 5.212 5.212 0 0 0-3.2 2 1.05 1.05 0 0 1-.9.5c-1.2.2-4.2-2.5-4.2-3.7v-.6c.1-3.6-.1-3.9-3.4-5.4a4.399 4.399 0 0 1-1.8-1.2c-.6-.8-1.4-.7-2.3-.4-.9.3-1.4.9-1.3 1.9.302 2.42.402 4.862.3 7.3.007.278.075.551.2.8 3.1 4.5 4.3 9.8 5.8 14.9 1.2 3.9 3.4 6 7.4 6.3.64.05 1.276.151 1.9.3a4.164 4.164 0 0 1 3.4 3.2c.7 2.1.3 2.6-1.8 2.6h-6.5a3.242 3.242 0 0 1-2.3-.8 11.71 11.71 0 0 0-3.4-2 7.263 7.263 0 0 1-3.4-2.6 28.581 28.581 0 0 0-4-4.5c-2.8-2.9-5.8-5.7-8.4-8.7a11.382 11.382 0 0 1-3.2-7.6c0-.9-.2-1.3-1.2-.9-.3.19-.645.294-1 .3-2.8 0-4.2 1.7-5.2 4.2-.9 2.1-2.1 4.1-3.2 6.2a10.39 10.39 0 0 0-1 4.2c0 2.4.6 3.2 2.8 4 1.4.5 2.7 1 3.4 2.4.8 1.6.6 2-1.1 2.1h-6.8a1.88 1.88 0 0 1-1.9-1.1l-1.8-3a6.049 6.049 0 0 1-.7-5.4 11.86 11.86 0 0 0 .1-5.3 8.42 8.42 0 0 1 1.7-7c.6-.7.6-1-.4-1.2a50.068 50.068 0 0 1-11.8-4.1.1.1 0 0 1-.1-.1c-3.2-1.2-3.8-1-4.7 2.3-.8 2.8-1.6 5.6-2.2 8.5-.7 3.2.1 6.2 1.1 9.2.4 1.2 1.6 1.1 2.5 1.4 2 .6 3.7 1.4 4.5 3.5.7 1.6.6 1.8-1.1 1.8-1.7 0-3.4-.1-5.2 0a6.641 6.641 0 0 1-4.2-1.4c-4.8-3.2-6.2-8.1-6.6-13.4-.2-3.3-2-5.9-4.1-8.4-.4-.5-.8-.7-1.4-.3a44.322 44.322 0 0 1-6.7 3 26.71 26.71 0 0 0-12.2 8.8 10.63 10.63 0 0 0-2.2 5.1c-.3 1.8.2 2.6 2 3.1s2.7 1.5 2.9 3.4c.1.8-.2 1.2-1 1.2h-8.1a1.65 1.65 0 0 1-1.3-.8 8.56 8.56 0 0 1-1.9-5.5c-.052-3.455.25-6.907.9-10.3a6.3 6.3 0 0 1 3.4-4.8c5.9-2.8 9-8.1 11.8-13.6.6-1.1.1-1.3-.9-1.2a16.47 16.47 0 0 0-7.7 3.2 70.622 70.622 0 0 0-8.3 7.1 16.67 16.67 0 0 1-10.3 4.9c-7.3.4-10.7-3.7-10.4-10.3a9.69 9.69 0 0 1 2.4-6.1 4.25 4.25 0 0 1 4.5-1.5c1.5.4 1.9 1.2 1.3 2.7-.3.6-.7 1.1-1 1.7a7.499 7.499 0 0 0-1 2c-1.1 3 .4 5.1 3.5 5.4 3.3.3 6-1.1 8.5-3.1a44.94 44.94 0 0 0 8-8.3 20.79 20.79 0 0 1 14.4-8.1c2.3-.3 4.3-1.3 6.5-1.9a41.51 41.51 0 0 1 12.7-1.8 13 13 0 0 0 5.8-1.1c4.9-2 10-2 15.1-1 4 .8 8 1.8 11.9 2.8a16.58 16.58 0 0 0 7-.2 67.793 67.793 0 0 1 13.4-2 18.16 18.16 0 0 1 8.6 1.7c2 .9 2 .9 1.5 2.8Z" fill="#000"></path></svg><svg fill="none" id="pro-icon-mobile" viewBox="0 0 67 28"><path d="M61.56 2.878a7.601 7.601 0 0 1 2.25-2.3c.5-.35.8-.35 1.1.3.4.95.75 1.95.45 3a1.144 1.144 0 0 0 .2 1.05c.3.4.55.8.8 1.15a3.135 3.135 0 0 1 .45 3.1 2.716 2.716 0 0 0-.1 1.55c.099.495.099 1.005 0 1.5a1.875 1.875 0 0 1-1.35 1.6c-.64.122-1.211.479-1.6 1a.525.525 0 0 1-.45.25c-.6.1-2.1-1.25-2.1-1.85v-.3c.05-1.8-.05-1.95-1.7-2.7a2.196 2.196 0 0 1-.9-.6c-.3-.4-.7-.35-1.15-.2-.45.15-.7.45-.65.95.15 1.21.2 2.432.15 3.65a.94.94 0 0 0 .1.4c1.55 2.25 2.15 4.9 2.9 7.45.6 1.95 1.7 3 3.7 3.15.32.026.637.076.95.15a2.08 2.08 0 0 1 1.7 1.6c.35 1.05.15 1.3-.9 1.3h-3.25a1.62 1.62 0 0 1-1.15-.4 5.856 5.856 0 0 0-1.7-1 3.63 3.63 0 0 1-1.7-1.3 14.307 14.307 0 0 0-2-2.25c-1.4-1.45-2.9-2.85-4.2-4.35a5.69 5.69 0 0 1-1.6-3.8c0-.45-.1-.65-.6-.45a.965.965 0 0 1-.5.15c-1.4 0-2.1.85-2.6 2.1-.45 1.05-1.05 2.05-1.6 3.1a5.195 5.195 0 0 0-.5 2.1c0 1.2.3 1.6 1.4 2 .7.25 1.35.5 1.7 1.2.4.8.3 1-.55 1.05h-3.4a.94.94 0 0 1-.95-.55l-.9-1.5a3.025 3.025 0 0 1-.35-2.7 5.93 5.93 0 0 0 .05-2.65 4.21 4.21 0 0 1 .85-3.5c.3-.35.3-.5-.2-.6a25.03 25.03 0 0 1-5.9-2.05.05.05 0 0 1-.05-.05c-1.6-.6-1.9-.5-2.35 1.15-.4 1.4-.8 2.8-1.1 4.25-.35 1.6.05 3.1.55 4.6.2.6.8.55 1.25.7 1 .3 1.85.7 2.25 1.75.35.8.3.9-.55.9-.85 0-1.7-.05-2.6 0a3.32 3.32 0 0 1-2.1-.7c-2.4-1.6-3.1-4.05-3.3-6.7-.1-1.65-1-2.95-2.05-4.2-.2-.25-.4-.35-.7-.15a22.156 22.156 0 0 1-3.35 1.5 13.355 13.355 0 0 0-6.1 4.4 5.315 5.315 0 0 0-1.1 2.55c-.15.9.1 1.3 1 1.55s1.35.75 1.45 1.7c.05.4-.1.6-.5.6h-4.05a.824.824 0 0 1-.65-.4 4.28 4.28 0 0 1-.95-2.75 25.307 25.307 0 0 1 .45-5.15 3.152 3.152 0 0 1 1.7-2.4c2.95-1.4 4.5-4.05 5.9-6.8.3-.55.05-.65-.45-.6a8.236 8.236 0 0 0-3.85 1.6 35.317 35.317 0 0 0-4.15 3.55 8.335 8.335 0 0 1-5.15 2.45c-3.65.2-5.35-1.85-5.2-5.15a4.845 4.845 0 0 1 1.2-3.05 2.125 2.125 0 0 1 2.25-.75c.75.2.95.6.65 1.35-.15.3-.35.55-.5.85a3.75 3.75 0 0 0-.5 1c-.55 1.5.2 2.55 1.75 2.7 1.65.15 3-.55 4.25-1.55a22.465 22.465 0 0 0 4-4.15 10.395 10.395 0 0 1 7.2-4.05c1.15-.15 2.15-.65 3.25-.95 2.056-.627 4.199-.93 6.35-.9a6.5 6.5 0 0 0 2.9-.55c2.45-1 5-1 7.55-.5 2 .4 4 .9 5.95 1.4a8.29 8.29 0 0 0 3.5-.1 33.894 33.894 0 0 1 6.7-1 9.08 9.08 0 0 1 4.3.85c1 .45 1 .45.75 1.4Z" fill="#000"></path></svg><svg fill="none" id="pro-icon-tablet" viewBox="0 0 268 112"><path d="M246.236 11.514a30.402 30.402 0 0 1 9-9.2c2-1.4 3.2-1.4 4.4 1.2 1.6 3.8 3 7.8 1.8 12a4.59 4.59 0 0 0 .8 4.2c1.2 1.6 2.2 3.2 3.2 4.6a12.541 12.541 0 0 1 1.8 12.4 10.865 10.865 0 0 0-.4 6.2c.4 1.98.4 4.02 0 6a7.494 7.494 0 0 1-5.4 6.4 10.422 10.422 0 0 0-6.4 4 2.099 2.099 0 0 1-1.8 1c-2.4.4-8.4-5-8.4-7.4v-1.2c.2-7.2-.2-7.8-6.8-10.8a8.783 8.783 0 0 1-3.6-2.4c-1.2-1.6-2.8-1.4-4.6-.8-1.8.6-2.8 1.8-2.6 3.8.604 4.841.804 9.725.6 14.6.014.556.15 1.103.4 1.6 6.2 9 8.6 19.6 11.6 29.8 2.4 7.8 6.8 12 14.8 12.6 1.281.102 2.551.302 3.8.6a8.318 8.318 0 0 1 6.8 6.4c1.4 4.2.6 5.2-3.6 5.2h-13a6.481 6.481 0 0 1-4.6-1.6 23.39 23.39 0 0 0-6.8-4 14.53 14.53 0 0 1-6.8-5.2 57.165 57.165 0 0 0-8-9c-5.6-5.8-11.6-11.4-16.8-17.4a22.767 22.767 0 0 1-6.4-15.2c0-1.8-.4-2.6-2.4-1.8-.598.38-1.29.587-2 .6-5.6 0-8.4 3.4-10.4 8.4-1.8 4.2-4.2 8.2-6.4 12.4a20.802 20.802 0 0 0-2 8.4c0 4.8 1.2 6.4 5.6 8 2.8 1 5.4 2 6.8 4.8 1.6 3.2 1.2 4-2.2 4.2h-13.6a3.762 3.762 0 0 1-3.8-2.2l-3.6-6a12.1 12.1 0 0 1-1.4-10.8c.866-3.473.934-7.097.2-10.6a16.841 16.841 0 0 1 3.4-14c1.2-1.4 1.2-2-.8-2.4a100.13 100.13 0 0 1-23.6-8.2.2.2 0 0 1-.2-.2c-6.4-2.4-7.6-2-9.4 4.6-1.6 5.6-3.2 11.2-4.4 17-1.4 6.4.2 12.4 2.2 18.4.8 2.4 3.2 2.2 5 2.8 4 1.2 7.4 2.8 9 7 1.4 3.2 1.2 3.6-2.2 3.6-3.4 0-6.8-.2-10.4 0a13.288 13.288 0 0 1-8.4-2.8c-9.6-6.4-12.4-16.2-13.2-26.8-.4-6.6-4-11.8-8.2-16.8-.8-1-1.6-1.4-2.8-.6a88.615 88.615 0 0 1-13.4 6 53.42 53.42 0 0 0-24.4 17.6 21.26 21.26 0 0 0-4.4 10.2c-.6 3.6.4 5.2 4 6.2s5.4 3 5.8 6.8c.2 1.6-.4 2.4-2 2.4h-16.2a3.301 3.301 0 0 1-2.6-1.6 17.122 17.122 0 0 1-3.8-11 101.19 101.19 0 0 1 1.8-20.6 12.6 12.6 0 0 1 6.8-9.6c11.8-5.6 18-16.2 23.6-27.2 1.2-2.2.2-2.6-1.8-2.4a32.94 32.94 0 0 0-15.4 6.4 141.23 141.23 0 0 0-16.6 14.2 33.34 33.34 0 0 1-20.6 9.8c-14.6.8-21.4-7.4-20.8-20.6a19.38 19.38 0 0 1 4.8-12.2 8.5 8.5 0 0 1 9-3c3 .8 3.8 2.4 2.6 5.4-.6 1.2-1.4 2.2-2 3.4a14.998 14.998 0 0 0-2 4c-2.2 6 .8 10.2 7 10.8 6.6.6 12-2.2 17-6.2a89.88 89.88 0 0 0 16-16.6 41.579 41.579 0 0 1 28.8-16.2c4.6-.6 8.6-2.6 13-3.8a83.015 83.015 0 0 1 25.4-3.6 25.996 25.996 0 0 0 11.6-2.2c9.8-4 20-4 30.2-2 8 1.6 16 3.6 23.8 5.6a33.16 33.16 0 0 0 14-.4 135.592 135.592 0 0 1 26.8-4 36.318 36.318 0 0 1 17.2 3.4c4 1.8 4 1.8 3 5.6Z" fill="#000"></path></svg><svg fill="none" id="release-form-icon" viewBox="0 0 26 29"><path d="M10.875 0c-1.631 0-2.9 1.36-2.9 3.081 0 1.722 1.269 3.081 2.9 3.081s2.9-1.359 2.9-3.08c0-1.723-1.269-3.082-2.9-3.082Zm0 1.178c.997 0 1.722.843 1.722 1.903 0 .997-.789 1.903-1.722 1.903-.997 0-1.722-.842-1.722-1.903 0-.997.78-1.903 1.722-1.903ZM0 24.741c0 1.178.408 2.175 1.36 2.99.996.852 2.174.78 2.174.78h19.032c.779 0 1.812-.381 2.628-1.45.843-.997.788-2.357.788-2.357V7.486c0-.435-.109-.598-.743-.598s-.689.271-.689.589v17.218c-.018.3-.072 1.088-.743 1.722-.734.625-1.45.544-1.45.544s-18.125 0-19.031-.027c-.344-.064-.906-.19-1.45-.907-.508-.725-.408-1.63-.408-1.63V7.176c0-.462-.236-.634-.725-.634-.49 0-.743.172-.743.58v17.618ZM16.313 8.428c-1.088.236-2.175.38-4.26 2.356-2.084 1.994-3.625 1.903-5.166 1.813-1.54-.09-3.171-1.54-3.443-1.903-.336-.354-.906-.118-1.088.118-.154.235-.154.643.109.996 1.269 1.179 2.447 2.085 4.713 2.266 2.265.218 4.44-.806 5.89-2.266 1.45-1.45 2.175-1.721 3.263-1.903 2.628-.417 4.168.617 5.075 1.27.997 1.087 1.268.778 1.54.47.544-.716-.226-1.268-1.087-1.903-1.813-1.178-3.535-1.631-5.528-1.269l-.018-.045Zm-9.063 7.16c-1.178 0-2.084.996-2.084 2.265 0 1.269.906 2.266 2.084 2.266s2.084-.997 2.084-2.266c0-1.269-.906-2.266-2.084-2.266Zm11.781.779c-1.54 0-2.81 1.36-2.81 2.99 0 1.632 1.27 2.991 2.81 2.991s2.81-1.36 2.81-2.99c0-1.632-1.27-2.991-2.81-2.991Zm0 1.45c.798 0 1.45.698 1.45 1.54 0 .861-.652 1.541-1.45 1.541-.797 0-1.45-.698-1.45-1.54 0-.861.653-1.541 1.45-1.541Z" fill="#fff"></path></svg><svg fill="none" id="replace-food-icon" viewBox="0 0 25 30"><path fill-rule="evenodd" clip-rule="evenodd" d="M18.617.076a1 1 0 0 1 1.09.217c.909.908 2.097 2.878 3.059 5.918C23.737 9.28 24.5 13.508 24.5 19a1 1 0 0 1-1 1H20v9a1 1 0 1 1-2 0V1a1 1 0 0 1 .617-.924ZM20 18h2.491c-.086-4.816-.786-8.512-1.632-11.186-.278-.88-.57-1.643-.859-2.295V18ZM6 0a1 1 0 0 1 1 1v28a1 1 0 1 1-2 0V1a1 1 0 0 1 1-1Z" fill="#fff"></path><path fill-rule="evenodd" clip-rule="evenodd" d="M1.5 0a1 1 0 0 1 1 1v5.5c0 .557.192 1.315.7 1.917C3.68 8.983 4.515 9.5 6 9.5a1 1 0 1 1 0 2c-2.015 0-3.43-.733-4.326-1.792A5.068 5.068 0 0 1 .5 6.5V1a1 1 0 0 1 1-1Z" fill="#fff"></path><path fill-rule="evenodd" clip-rule="evenodd" d="M10.5 0a1 1 0 0 0-1 1v5.5a3.07 3.07 0 0 1-.7 1.917C8.32 8.983 7.484 9.5 6 9.5a1 1 0 0 0 0 2c2.014 0 3.43-.733 4.326-1.792A5.068 5.068 0 0 0 11.5 6.5V1a1 1 0 0 0-1-1Z" fill="#fff"></path></svg><svg fill="none" id="slider-mobile" viewBox="0 0 40 258"><rect x="18" width="4" height="110.02" rx="2" fill="#666"></rect><rect x="18" y="148" width="4" height="108.02" rx="2" fill="#666"></rect><path d="m16 120-8 9 8 9v-18ZM32 129l-8-9v18l8-9Z" fill="#666"></path><rect x="1" y="110" width="38" height="38" rx="19" stroke="#666" stroke-width="2"></rect></svg><svg fill="none" id="slider-tablet" viewBox="0 0 40 512"><rect x="18" width="4" height="237" rx="2" fill="#666"></rect><rect x="18" y="275" width="4" height="237" rx="2" fill="#666"></rect><path d="m16 247-8 9 8 9v-18ZM32 256l-8-9v18l8-9Z" fill="#666"></path><rect x="1" y="237" width="38" height="38" rx="19" stroke="#666" stroke-width="2"></rect></svg><svg fill="none" id="slider" viewBox="0 0 40 40"><rect x="1" y="1" width="38" height="38" rx="19" fill="#fff"></rect><path d="m16 11-8 9 8 9V11ZM32 20l-8-9v18l8-9Z" fill="#666"></path><rect x="1" y="1" width="38" height="38" rx="19" stroke="#666" stroke-width="2"></rect></svg><svg fill="none" id="slim-icon-desktop" viewBox="0 0 70 97"><path d="M54.84 0h-.38A3.5 3.5 0 0 0 53 1.59 15.54 15.54 0 0 0 51.71 5a1.63 1.63 0 0 1-1.48 1.34A7.34 7.34 0 0 0 45 10.12a27.31 27.31 0 0 0-1.85 4c-1.42 3.68-2.51 7.48-3.85 11.19C38.67 27 38.64 27 36.74 27c-2.27 0-2.11-.35-2.14 2.15 0 .79.24 1.19 1.08 1.15.26 0 .65-.13.75.21.1.34-.24.49-.44.69a9 9 0 0 1-4.33 2.44c-1.9.51-3.84.91-5.69 1.53-4.75 1.59-9.14 3.81-12.56 7.57a28.002 28.002 0 0 0-4.74 7.84C5 59.22 3.22 68.32 1.84 77.51c-.65 4.31-1.11 8.64-1.46 13C.2 92.65 0 94.82 0 97h33.33a2.18 2.18 0 0 0-.23-1.28 5 5 0 0 0-3.83-3.07c-.7-.16-.78-.37-.35-.92a10.348 10.348 0 0 0 1.59-3.1c1.63-4.81 2.26-9.83 3.05-14.8A30.001 30.001 0 0 1 37 63a21.6 21.6 0 0 1 5.59-6.37c.83-.63.86-.63 1 .44.1.71.12 1.44.17 2.16.3 4.724.24 9.465-.18 14.18a61.669 61.669 0 0 0-.15 11A75.16 75.16 0 0 0 45.7 97H59a5.41 5.41 0 0 0-4.24-4.44 9 9 0 0 0-3.76.2c-.6.14-.85 0-.9-.65a56.351 56.351 0 0 1 1-15.82 177.734 177.734 0 0 0 3.06-18.18 17.75 17.75 0 0 1 2.28-7c1.19-2.12 2.23-4.32 3.4-6.45a5.871 5.871 0 0 0 .42-5.19c-.27-.71-.53-1.43-.86-2.11-1-1.95-2-3.88-2.92-5.85-.49-1-.38-1.12.71-1.15 1.63 0 1.63 0 1.66-1.64v-.66c0-.69-.26-1.07-1-1h-1.52c-.69 0-.89-.29-.72-1a6.24 6.24 0 0 1 5.13-4.43 22 22 0 0 1 6.62.43 1 1 0 0 0 1.25-.64c.4-1 .84-2 1.29-3a1 1 0 0 0-.1-1.14C66.6 13.22 63.13 9.43 58.4 7a1.49 1.49 0 0 1-.88-1.12 19.599 19.599 0 0 0-1.27-4.16A3.5 3.5 0 0 0 54.84 0Z" fill="#000"></path></svg><svg fill="none" id="slim-icon-mobile" viewBox="0 0 36 50"><path d="M28.203 0h-.195c-.33.187-.593.474-.75.82a8.028 8.028 0 0 0-.664 1.757.84.84 0 0 1-.761.691 3.77 3.77 0 0 0-2.69 1.948c-.372.661-.69 1.35-.952 2.062-.73 1.897-1.29 3.856-1.98 5.768-.324.872-.339.872-1.316.872-1.168 0-1.085-.18-1.1 1.108 0 .407.123.613.555.593.133 0 .334-.067.385.108.052.175-.123.252-.226.355a4.626 4.626 0 0 1-2.227 1.258c-.977.263-1.975.47-2.926.789-2.443.82-4.7 1.964-6.46 3.902a14.44 14.44 0 0 0-2.437 4.041C2.57 30.526 1.656 35.217.946 39.954a97.064 97.064 0 0 0-.75 6.7C.102 47.759 0 48.877 0 50h17.141a1.126 1.126 0 0 0-.118-.66 2.577 2.577 0 0 0-1.97-1.582c-.36-.083-.401-.191-.18-.475.36-.482.637-1.022.818-1.597.838-2.48 1.162-5.067 1.568-7.63.23-1.956.83-3.85 1.77-5.582a11.126 11.126 0 0 1 2.874-3.283c.427-.325.443-.325.515.227.051.366.061.742.087 1.113a48.166 48.166 0 0 1-.092 7.31 31.866 31.866 0 0 0-.078 5.67A38.826 38.826 0 0 0 23.503 50h6.84a2.79 2.79 0 0 0-2.18-2.289 4.62 4.62 0 0 0-1.934.103c-.309.073-.438 0-.463-.335a29.113 29.113 0 0 1 .514-8.154 91.803 91.803 0 0 0 1.574-9.371 9.163 9.163 0 0 1 1.172-3.609c.612-1.092 1.147-2.226 1.749-3.324a3.031 3.031 0 0 0 .216-2.676c-.139-.366-.273-.737-.442-1.087-.515-1.005-1.029-2-1.502-3.016-.252-.515-.196-.577.365-.593.838 0 .838 0 .854-.845v-.34c0-.356-.134-.552-.515-.516h-.781c-.355 0-.458-.149-.37-.515a3.217 3.217 0 0 1 2.638-2.284 11.291 11.291 0 0 1 3.404.222.513.513 0 0 0 .643-.33c.206-.515.432-1.03.664-1.546a.517.517 0 0 0-.052-.588c-1.646-2.093-3.43-4.046-5.863-5.299a.767.767 0 0 1-.452-.577 10.123 10.123 0 0 0-.653-2.144A1.803 1.803 0 0 0 28.203 0Z" fill="#000"></path></svg><svg fill="none" id="slim-icon-tablet" viewBox="0 0 140 194"><path d="M109.68 0h-.76A7 7 0 0 0 106 3.18a31.04 31.04 0 0 0-2.58 6.82 3.257 3.257 0 0 1-2.96 2.68A14.68 14.68 0 0 0 90 20.24a54.62 54.62 0 0 0-3.7 8c-2.84 7.36-5.02 14.96-7.7 22.38C77.34 54 77.28 54 73.48 54c-4.54 0-4.22-.7-4.28 4.3 0 1.58.48 2.38 2.16 2.3.52 0 1.3-.26 1.5.42.2.68-.48.98-.88 1.38a18 18 0 0 1-8.66 4.88c-3.8 1.02-7.68 1.82-11.38 3.06-9.5 3.18-18.28 7.62-25.12 15.14a56 56 0 0 0-9.48 15.68C10 118.44 6.44 136.64 3.68 155.02c-1.3 8.62-2.22 17.28-2.92 26C.4 185.3 0 189.64 0 194h66.66c.11-.88-.05-1.773-.46-2.56a10.002 10.002 0 0 0-7.66-6.14c-1.4-.32-1.56-.74-.7-1.84a20.692 20.692 0 0 0 3.18-6.2c3.26-9.62 4.52-19.66 6.1-29.6A60.002 60.002 0 0 1 74 126a43.206 43.206 0 0 1 11.18-12.74c1.66-1.26 1.72-1.26 2 .88.2 1.42.24 2.88.34 4.32.6 9.449.48 18.93-.36 28.36a123.337 123.337 0 0 0-.3 22A150.344 150.344 0 0 0 91.4 194H118a10.817 10.817 0 0 0-8.48-8.88 18.007 18.007 0 0 0-7.52.4c-1.2.28-1.7 0-1.8-1.3a112.707 112.707 0 0 1 2-31.64 355.46 355.46 0 0 0 6.12-36.36 35.499 35.499 0 0 1 4.56-14c2.38-4.24 4.46-8.64 6.8-12.9a11.745 11.745 0 0 0 .84-10.38c-.54-1.42-1.06-2.86-1.72-4.22-2-3.9-4-7.76-5.84-11.7-.98-2-.76-2.24 1.42-2.3 3.26 0 3.26 0 3.32-3.28v-1.32c0-1.38-.52-2.14-2-2h-3.04c-1.38 0-1.78-.58-1.44-2a12.483 12.483 0 0 1 10.26-8.86 43.999 43.999 0 0 1 13.24.86 1.999 1.999 0 0 0 2.5-1.28c.8-2 1.68-4 2.58-6a1.997 1.997 0 0 0-.2-2.28c-6.4-8.12-13.34-15.7-22.8-20.56a2.977 2.977 0 0 1-1.76-2.24 39.163 39.163 0 0 0-2.54-8.32A7 7 0 0 0 109.68 0Z" fill="#000"></path></svg><svg fill="none" id="telegram-icon" viewBox="0 0 28 22"><path fill-rule="evenodd" clip-rule="evenodd" d="M23.46 3.153c.18.15.265.382.227.611l-2.626 15.757a.657.657 0 0 1-1.012.439l-7.878-5.253a.657.657 0 0 1-.149-.956l2.611-3.263-4.36 2.906a.657.657 0 0 1-.658.041L4.363 10.81a.657.657 0 0 1 .073-1.205l18.383-6.566a.657.657 0 0 1 .642.115Zm-17.134 7.17 3.536 1.768 7.561-5.041a.656.656 0 0 1 .877.956l-4.805 6.006 6.438 4.292L22.208 4.65 6.326 10.323Z" fill="#666"></path></svg><svg fill="none" id="tick-icon-mobile" viewBox="0 0 26 26"><path d="M11 17.718 5.3 11.27l-1.05 1.187L11 20.094 22.25 7.366 21.2 6.094 11 17.718Z" fill="#68B738"></path></svg><svg fill="none" id="tick-icon-tablet" viewBox="0 0 26 26"><path d="m10 19.499-7.6-8.598L1 12.485l9 10.182 15-16.97L23.6 4 10 19.499Z" fill="#68B738"></path></svg><svg fill="none" id="vk-icon" viewBox="0 0 28 22"><path d="M1 5.339c0-.855.515-1.316 1.545-1.383l3.97.025a.52.52 0 0 1 .533.377c.409 1.257.866 2.343 1.372 3.257.506.913 1.168 1.965 1.985 3.156.071.15.187.226.346.226.125 0 .223-.059.293-.176l.08-.277.027-4.35c0-.302-.075-.503-.226-.604-.151-.1-.431-.176-.84-.226-.32-.05-.48-.235-.48-.553 0-.067.01-.118.027-.151.373-1.09 1.44-1.635 3.198-1.635L14.322 3c.675 0 1.234.16 1.678.478.444.318.666.821.666 1.509v5.708c.125.084.24.126.347.126.266 0 .497-.15.692-.453 1.954-2.582 3.011-4.308 3.17-5.18 0-.017.019-.059.054-.126.125-.251.329-.47.613-.654.284-.184.533-.31.746-.377a.554.554 0 0 1 .24-.05h4.13l.266.025c.355 0 .63.16.826.478.07.1.12.21.146.327.027.117.045.234.054.352.009.117.013.184.013.2v.177c-.124.687-.44 1.42-.946 2.2-.506.78-1.15 1.622-1.931 2.528-.782.905-1.27 1.5-1.466 1.785-.16.201-.24.386-.24.553 0 .135.071.286.213.453l3.89 4.627c.213.269.32.562.32.88 0 .386-.16.705-.48.956-.32.252-.701.394-1.145.428l-.453.025h-4.05a.855.855 0 0 0-.106.012.862.862 0 0 1-.107.013c-.39 0-.755-.16-1.092-.478-.125-.134-.96-1.123-2.505-2.967a1.387 1.387 0 0 0-.373-.327c-.07.268-.164.654-.28 1.157-.115.503-.2.863-.253 1.081l-.08.427c-.177.587-.55.94-1.119 1.057l-.373.025h-2.61c-1.475 0-2.945-.637-4.41-1.911-1.466-1.275-2.784-2.922-3.957-4.942-1.172-2.02-2.264-4.372-3.277-7.054A1.916 1.916 0 0 1 1 5.338Zm16.013 6.513c-.373 0-.71-.096-1.013-.29-.302-.192-.453-.456-.453-.791V4.987c0-.336-.089-.575-.266-.717-.178-.143-.489-.214-.933-.214l-1.518.05c-.764 0-1.341.126-1.732.378.781.352 1.172.922 1.172 1.71v4.426a1.5 1.5 0 0 1-.533 1.044 1.59 1.59 0 0 1-1.066.414c-.532 0-.94-.243-1.225-.729C8.06 9.371 7.03 7.493 6.356 5.716l-.24-.654-3.544-.025c-.231 0-.36.013-.386.038-.027.025-.04.096-.04.213 0 .151.017.31.053.478l.56 1.409c1.491 3.638 3.112 6.505 4.862 8.6 1.75 2.096 3.468 3.144 5.155 3.144h2.665c.106 0 .186-.03.24-.088.053-.06.097-.172.133-.34l.053-.251.506-2.213c.142-.302.267-.503.373-.604a.975.975 0 0 1 .693-.277c.426 0 .861.243 1.305.73l2.265 2.716c.142.218.293.327.453.327h4.396c.533 0 .8-.126.8-.378a.466.466 0 0 0-.08-.251l-3.864-4.552c-.302-.352-.453-.73-.453-1.131 0-.403.142-.788.427-1.157.23-.336.679-.893 1.345-1.673a37.63 37.63 0 0 0 1.745-2.187c.498-.68.826-1.296.986-1.849l.08-.327a.371.371 0 0 1-.027-.163.574.574 0 0 0-.026-.189h-4.183c-.267.1-.48.252-.64.453l-.16.478c-.444 1.156-1.607 2.942-3.49 5.356a1.892 1.892 0 0 1-1.305.503Z" fill="#666"></path></svg><svg fill="none" id="youtube-icon" viewBox="0 0 28 22"><path d="m17.85 10.793-5.236-3.491a.655.655 0 0 0-1.014.545v6.982a.654.654 0 0 0 1.014.546l5.237-3.491a.655.655 0 0 0 0-1.091Zm-4.94 2.814V9.07l3.403 2.27-3.404 2.268Zm12.48-8.563a2.4 2.4 0 0 0-1.452-1.637C20.218 1.978 14.251 2 14 2c-.25 0-6.218-.022-9.938 1.407A2.4 2.4 0 0 0 2.61 5.044C2.327 6.113 2 8.076 2 11.338c0 3.262.327 5.226.61 6.295a2.4 2.4 0 0 0 1.452 1.636c3.72 1.43 9.687 1.407 9.938 1.407h.076c.753 0 6.317-.043 9.862-1.407a2.4 2.4 0 0 0 1.451-1.636c.284-1.07.611-3.033.611-6.295s-.327-5.225-.61-6.294Zm-1.266 12.261a1.09 1.09 0 0 1-.655.742c-3.49 1.342-9.404 1.32-9.469 1.32-.066 0-5.978.022-9.47-1.32a1.09 1.09 0 0 1-.654-.742c-.261-1.003-.567-2.847-.567-5.967 0-3.12.306-4.963.567-5.967a1.09 1.09 0 0 1 .655-.742C8.02 3.287 13.935 3.31 14 3.31c.066 0 5.978-.022 9.47 1.32a1.092 1.092 0 0 1 .654.742c.262 1.004.567 2.847.567 5.967 0 3.12-.305 4.964-.567 5.967Z" fill="#666"></path></svg></svg>