<svg width="112" height="15" viewBox="0 0 112 15" fill="none" xmlns="http://www.w3.org/2000/svg">
<path d="M10.1114 0.535999V12H8.55938V6.784H2.37538V12H0.823375V0.535999H2.37538V5.648H8.55938V0.535999H10.1114ZM20.7941 1.84H17.0821V12H15.5381V1.84H11.8181V0.535999H20.7941V1.84ZM34.4233 0.535999V12H33.0633V3.576C33.0633 3.464 33.0659 3.344 33.0713 3.216C33.0819 3.088 33.0926 2.95733 33.1033 2.824L29.1673 9.992C29.0446 10.232 28.8579 10.352 28.6073 10.352H28.3833C28.1326 10.352 27.9459 10.232 27.8233 9.992L23.8073 2.792C23.8393 3.07467 23.8553 3.336 23.8553 3.576V12H22.4953V0.535999H23.6393C23.7779 0.535999 23.8846 0.549333 23.9593 0.575999C24.0339 0.602666 24.1059 0.677333 24.1753 0.799999L28.1353 7.856C28.1993 7.984 28.2606 8.11733 28.3193 8.256C28.3833 8.39467 28.4419 8.536 28.4953 8.68C28.5486 8.536 28.6046 8.39467 28.6633 8.256C28.7219 8.112 28.7859 7.976 28.8553 7.848L32.7433 0.799999C32.8073 0.677333 32.8766 0.602666 32.9513 0.575999C33.0313 0.549333 33.1406 0.535999 33.2793 0.535999H34.4233ZM43.8586 10.696V12H37.3546V0.535999H38.8986V10.696H43.8586ZM54.7395 7.744L52.9395 3.08C52.8862 2.94133 52.8302 2.78133 52.7715 2.6C52.7128 2.41333 52.6568 2.216 52.6035 2.008C52.4915 2.44 52.3768 2.8 52.2595 3.088L50.4595 7.744H54.7395ZM57.9715 12H56.7715C56.6328 12 56.5208 11.9653 56.4355 11.896C56.3502 11.8267 56.2862 11.7387 56.2435 11.632L55.1715 8.864H50.0275L48.9555 11.632C48.9235 11.728 48.8622 11.8133 48.7715 11.888C48.6808 11.9627 48.5688 12 48.4355 12H47.2355L51.8195 0.535999H53.3875L57.9715 12ZM64.5649 5.336C64.5222 5.39467 64.4795 5.44 64.4369 5.472C64.3942 5.504 64.3355 5.52 64.2609 5.52C64.1809 5.52 64.0929 5.488 63.9969 5.424C63.9009 5.35467 63.7809 5.28 63.6369 5.2C63.4982 5.12 63.3249 5.048 63.1169 4.984C62.9142 4.91467 62.6635 4.88 62.3649 4.88C61.9649 4.88 61.6129 4.952 61.3089 5.096C61.0049 5.23467 60.7489 5.43733 60.5409 5.704C60.3382 5.97067 60.1835 6.29333 60.0769 6.672C59.9755 7.05067 59.9249 7.47467 59.9249 7.944C59.9249 8.43467 59.9809 8.872 60.0929 9.256C60.2049 9.63467 60.3622 9.95467 60.5649 10.216C60.7729 10.472 61.0209 10.6693 61.3089 10.808C61.6022 10.9413 61.9302 11.008 62.2929 11.008C62.6395 11.008 62.9249 10.968 63.1489 10.888C63.3729 10.8027 63.5569 10.7093 63.7009 10.608C63.8502 10.5067 63.9729 10.416 64.0689 10.336C64.1702 10.2507 64.2689 10.208 64.3649 10.208C64.4822 10.208 64.5729 10.2533 64.6369 10.344L65.0369 10.864C64.8609 11.0827 64.6609 11.2693 64.4369 11.424C64.2129 11.5787 63.9702 11.7093 63.7089 11.816C63.4529 11.9173 63.1835 11.992 62.9009 12.04C62.6182 12.088 62.3302 12.112 62.0369 12.112C61.5302 12.112 61.0582 12.0187 60.6209 11.832C60.1889 11.6453 59.8129 11.376 59.4929 11.024C59.1729 10.6667 58.9222 10.2293 58.7409 9.712C58.5595 9.19467 58.4689 8.60533 58.4689 7.944C58.4689 7.34133 58.5515 6.784 58.7169 6.272C58.8875 5.76 59.1329 5.32 59.4529 4.952C59.7782 4.57867 60.1755 4.288 60.6449 4.08C61.1195 3.872 61.6635 3.768 62.2769 3.768C62.8475 3.768 63.3489 3.86133 63.7809 4.048C64.2182 4.22933 64.6049 4.488 64.9409 4.824L64.5649 5.336ZM70.9575 8.352C70.3015 8.37333 69.7415 8.42667 69.2775 8.512C68.8188 8.592 68.4428 8.69867 68.1495 8.832C67.8615 8.96533 67.6508 9.12267 67.5175 9.304C67.3895 9.48533 67.3255 9.688 67.3255 9.912C67.3255 10.1253 67.3602 10.3093 67.4295 10.464C67.4988 10.6187 67.5922 10.7467 67.7095 10.848C67.8322 10.944 67.9735 11.016 68.1335 11.064C68.2988 11.1067 68.4748 11.128 68.6615 11.128C68.9122 11.128 69.1415 11.104 69.3495 11.056C69.5575 11.0027 69.7522 10.928 69.9335 10.832C70.1202 10.736 70.2962 10.6213 70.4615 10.488C70.6322 10.3547 70.7975 10.2027 70.9575 10.032V8.352ZM66.3575 5.04C66.8055 4.608 67.2882 4.28533 67.8055 4.072C68.3228 3.85867 68.8962 3.752 69.5255 3.752C69.9788 3.752 70.3815 3.82667 70.7335 3.976C71.0855 4.12533 71.3815 4.33333 71.6215 4.6C71.8615 4.86667 72.0428 5.18933 72.1655 5.568C72.2882 5.94667 72.3495 6.36267 72.3495 6.816V12H71.7175C71.5788 12 71.4722 11.9787 71.3975 11.936C71.3228 11.888 71.2642 11.7973 71.2215 11.664L71.0615 10.896C70.8482 11.0933 70.6402 11.2693 70.4375 11.424C70.2348 11.5733 70.0215 11.7013 69.7975 11.808C69.5735 11.9093 69.3335 11.9867 69.0775 12.04C68.8268 12.0987 68.5468 12.128 68.2375 12.128C67.9228 12.128 67.6268 12.0853 67.3495 12C67.0722 11.9093 66.8295 11.776 66.6215 11.6C66.4188 11.424 66.2562 11.2027 66.1335 10.936C66.0162 10.664 65.9575 10.344 65.9575 9.976C65.9575 9.656 66.0455 9.34933 66.2215 9.056C66.3975 8.75733 66.6828 8.49333 67.0775 8.264C67.4722 8.03467 67.9868 7.848 68.6215 7.704C69.2562 7.55467 70.0348 7.46933 70.9575 7.448V6.816C70.9575 6.18667 70.8215 5.712 70.5495 5.392C70.2775 5.06667 69.8802 4.904 69.3575 4.904C69.0055 4.904 68.7095 4.94933 68.4695 5.04C68.2348 5.12533 68.0295 5.224 67.8535 5.336C67.6828 5.44267 67.5335 5.54133 67.4055 5.632C67.2828 5.71733 67.1602 5.76 67.0375 5.76C66.9415 5.76 66.8588 5.736 66.7895 5.688C66.7202 5.63467 66.6615 5.57067 66.6135 5.496L66.3575 5.04ZM79.7986 5.824C79.532 5.46667 79.244 5.21867 78.9346 5.08C78.6253 4.936 78.2786 4.864 77.8946 4.864C77.1426 4.864 76.564 5.13333 76.1586 5.672C75.7533 6.21067 75.5506 6.97867 75.5506 7.976C75.5506 8.504 75.596 8.95733 75.6866 9.336C75.7773 9.70933 75.9106 10.0187 76.0866 10.264C76.2626 10.504 76.4786 10.68 76.7346 10.792C76.9906 10.904 77.2813 10.96 77.6066 10.96C78.076 10.96 78.484 10.8533 78.8306 10.64C79.1826 10.4267 79.5053 10.1253 79.7986 9.736V5.824ZM81.2226 0.216V12H80.3746C80.172 12 80.044 11.9013 79.9906 11.704L79.8626 10.72C79.516 11.136 79.1213 11.472 78.6786 11.728C78.236 11.984 77.724 12.112 77.1426 12.112C76.6786 12.112 76.2573 12.024 75.8786 11.848C75.5 11.6667 75.1773 11.4027 74.9106 11.056C74.644 10.7093 74.4386 10.2773 74.2946 9.76C74.1506 9.24267 74.0786 8.648 74.0786 7.976C74.0786 7.37867 74.1586 6.824 74.3186 6.312C74.4786 5.79467 74.708 5.34667 75.0066 4.968C75.3053 4.58933 75.6706 4.29333 76.1026 4.08C76.54 3.86133 77.0306 3.752 77.5746 3.752C78.0706 3.752 78.4946 3.83733 78.8466 4.008C79.204 4.17333 79.5213 4.40533 79.7986 4.704V0.216H81.2226ZM88.8958 7.064C88.8958 6.73333 88.8478 6.432 88.7518 6.16C88.6611 5.88267 88.5251 5.64533 88.3438 5.448C88.1678 5.24533 87.9518 5.09067 87.6958 4.984C87.4398 4.872 87.1491 4.816 86.8238 4.816C86.1411 4.816 85.5998 5.016 85.1998 5.416C84.8051 5.81067 84.5598 6.36 84.4638 7.064H88.8958ZM90.0478 10.864C89.8718 11.0773 89.6611 11.264 89.4158 11.424C89.1704 11.5787 88.9064 11.7067 88.6238 11.808C88.3464 11.9093 88.0584 11.984 87.7598 12.032C87.4611 12.0853 87.1651 12.112 86.8718 12.112C86.3118 12.112 85.7944 12.0187 85.3198 11.832C84.8504 11.64 84.4424 11.3627 84.0958 11C83.7544 10.632 83.4878 10.1787 83.2958 9.64C83.1038 9.10133 83.0078 8.48267 83.0078 7.784C83.0078 7.21867 83.0931 6.69067 83.2638 6.2C83.4398 5.70933 83.6904 5.28533 84.0158 4.928C84.3411 4.56533 84.7384 4.28267 85.2078 4.08C85.6771 3.872 86.2051 3.768 86.7918 3.768C87.2771 3.768 87.7251 3.85067 88.1358 4.016C88.5518 4.176 88.9091 4.41067 89.2078 4.72C89.5118 5.024 89.7491 5.40267 89.9198 5.856C90.0904 6.304 90.1758 6.816 90.1758 7.392C90.1758 7.616 90.1518 7.76533 90.1038 7.84C90.0558 7.91467 89.9651 7.952 89.8318 7.952H84.4158C84.4318 8.464 84.5011 8.90933 84.6238 9.288C84.7518 9.66667 84.9278 9.984 85.1518 10.24C85.3758 10.4907 85.6424 10.68 85.9518 10.808C86.2611 10.9307 86.6078 10.992 86.9918 10.992C87.3491 10.992 87.6558 10.952 87.9118 10.872C88.1731 10.7867 88.3971 10.696 88.5838 10.6C88.7704 10.504 88.9251 10.416 89.0478 10.336C89.1758 10.2507 89.2851 10.208 89.3758 10.208C89.4931 10.208 89.5838 10.2533 89.6478 10.344L90.0478 10.864ZM91.9249 12V3.896H92.7809C92.9835 3.896 93.1089 3.99467 93.1569 4.192L93.2609 5.024C93.5595 4.656 93.8955 4.35467 94.2689 4.12C94.6422 3.88533 95.0742 3.768 95.5649 3.768C96.1089 3.768 96.5489 3.92 96.8849 4.224C97.2262 4.528 97.4715 4.93867 97.6209 5.456C97.7382 5.16267 97.8875 4.90933 98.0689 4.696C98.2555 4.48267 98.4635 4.30667 98.6929 4.168C98.9222 4.02933 99.1649 3.928 99.4209 3.864C99.6822 3.8 99.9462 3.768 100.213 3.768C100.64 3.768 101.018 3.83733 101.349 3.976C101.685 4.10933 101.968 4.30667 102.197 4.568C102.432 4.82933 102.61 5.152 102.733 5.536C102.856 5.91467 102.917 6.34933 102.917 6.84V12H101.485V6.84C101.485 6.20533 101.346 5.72533 101.069 5.4C100.792 5.06933 100.392 4.904 99.8689 4.904C99.6342 4.904 99.4102 4.94667 99.1969 5.032C98.9889 5.112 98.8049 5.232 98.6449 5.392C98.4849 5.552 98.3569 5.75467 98.2609 6C98.1702 6.24 98.1249 6.52 98.1249 6.84V12H96.6929V6.84C96.6929 6.18933 96.5622 5.704 96.3009 5.384C96.0395 5.064 95.6582 4.904 95.1569 4.904C94.8049 4.904 94.4795 5 94.1809 5.192C93.8822 5.37867 93.6075 5.63467 93.3569 5.96V12H91.9249ZM111.87 3.896L107.35 14.392C107.302 14.4987 107.241 14.584 107.166 14.648C107.097 14.712 106.987 14.744 106.838 14.744H105.782L107.262 11.528L103.918 3.896H105.15C105.273 3.896 105.369 3.928 105.438 3.992C105.513 4.05067 105.563 4.11733 105.59 4.192L107.758 9.296C107.843 9.52 107.915 9.75467 107.974 10C108.049 9.74933 108.129 9.512 108.214 9.288L110.318 4.192C110.35 4.10667 110.403 4.03733 110.478 3.984C110.558 3.92533 110.646 3.896 110.742 3.896H111.87Z" fill="#444444"/>
</svg>
